<?xml version="1.0" standalone="no"?>
<!DOCTYPE svg PUBLIC "-//W3C//DTD SVG 1.1//EN" "http://www.w3.org/Graphics/SVG/1.1/DTD/svg11.dtd" >
<svg xmlns="http://www.w3.org/2000/svg">
<metadata></metadata>
<defs>
<font id="frostyregular" horiz-adv-x="706" >
<font-face units-per-em="2048" ascent="1638" descent="-410" />
<missing-glyph horiz-adv-x="518" />
<glyph horiz-adv-x="0" />
<glyph unicode="&#xd;" horiz-adv-x="518" />
<glyph unicode=" "  horiz-adv-x="518" />
<glyph unicode="&#x09;" horiz-adv-x="518" />
<glyph unicode="&#xa0;" horiz-adv-x="518" />
<glyph unicode="!" horiz-adv-x="796" d="M86 1616q0 41 32 66.5t72 25.5q66 0 99 -82q76 -195 90 -584q12 -424 61 -593q4 -14 43 -107q31 -76 31 -98q0 -41 -32.5 -72t-73.5 -31q-139 0 -242 658q-80 512 -80 817zM422 -158q29 20 78 43l-74 33l80 43q-31 8 -70 31q6 20 23 28l69 -28l9 76l75 -31q-2 29 -2 59 q0 17 39 17l8 -7l-8 -67l84 45l-8 -76q47 29 74 43q6 -2 20 -24q-29 -18 -76 -45l74 -31l-82 -45q31 -10 72 -33q-12 -35 -27 -29l-67 31l-8 -78l-76 33v-23q2 -14 2 -20q0 -33 -41 -33l-10 6l12 66l-82 -43l6 76q-25 -16 -74 -41q-16 12 -20 24z" />
<glyph unicode="&#x22;" horiz-adv-x="518" d="M4 1585q0 41 28.5 74t69.5 33q217 0 205 -121q27 63 94 63q18 0 58 -16q53 -14 106 -32.5t53 -86.5q0 -102 -112 -102q-27 0 -57 8q-72 -109 -138 -109q-27 0 -51 17q-31 -16 -55 -17q-104 0 -111 191q-90 18 -90 98z" />
<glyph unicode="#" horiz-adv-x="1134" d="M-35 760q0 59 31 110q35 61 90 62q57 0 92 -53l72 14l-27 242l-18 -2q-41 0 -72 32.5t-31 73.5q0 55 101 123q94 61 153 61q41 0 70 -33.5t29 -74.5q0 -47 -37 -76l37 -289l147 45q-43 156 -43 287q-70 51 -70 119q0 78 277 78q41 0 69.5 -32t28.5 -73q0 -88 -100 -100 q2 -98 35 -223l10 2q14 82 102 82q43 0 109.5 -77t66.5 -120q0 -39 -32.5 -69.5t-71.5 -30.5q-12 0 -76 28l-47 -10l43 -139l27 8q2 41 32.5 69.5t71.5 28.5q68 0 101 -88q25 -63 24 -147q0 -51 -45 -82q29 -31 29 -74t-64.5 -126t-105.5 -83q-72 0 -101 66q-94 33 -131 180 q-96 -14 -288 -49l-4 -19q8 -14 20 -16q8 -2 26.5 2t24.5 4q41 0 69.5 -33.5t28.5 -74.5q0 -53 -87 -105.5t-144 -52.5q-90 0 -90 106q0 16 2 37q-27 43 -37 105l-8 -2q-33 -57 -96 -58q-63 0 -97 78q-25 57 -24 133q0 41 30.5 72t71.5 31q61 0 90 -49l33 8l6 102l-114 -22 q-35 -41 -80 -41q-49 0 -79 43t-30 92zM469 631q78 12 236 39q-14 53 -41 131l-193 -60q2 -59 -2 -110zM930 504q0 -18 14 -19q19 21 39 33q-4 4 -6 8q-25 -8 -47 -14v-8z" />
<glyph unicode="$" horiz-adv-x="999" d="M37 950q0 121 61 238q59 111 158 190q-104 143 -104 168q0 41 28.5 73t69.5 32q66 0 119 -68q20 -25 71 -123q49 2 90 -4q47 197 148 197q41 0 73.5 -32t32.5 -73q0 -4 -28 -78q-29 -82 -33 -92q182 -113 182 -260q0 -68 -24 -117q-33 -63 -95 -63q-94 0 -94 92 q0 18 8 88q-135 139 -229 139q-82 0 -158 -114q-72 -106 -71 -193q0 -98 172 -153q160 -47 319 -95q172 -68 172 -198q0 -109 -94 -185q20 -33 39 -65q23 -41 22 -74q0 -33 -33.5 -65.5t-66.5 -32.5q-76 0 -147 156q-25 -45 -52 -91q-37 -55 -79 -55q-100 0 -101 103 q0 33 10 69q-125 55 -124 178q0 49 29.5 88t76.5 39t78 -35.5t22 -80.5q41 -14 80 -15q76 0 129 58q-49 47 -233 86q-205 41 -285 92q-139 88 -139 276z" />
<glyph unicode="%" horiz-adv-x="1183" d="M45 1171q0 133 76 256q86 141 211 142q147 0 188 -84q53 -31 119 -31q82 0 194.5 59.5t127.5 59.5q39 0 66.5 -28.5t27.5 -67.5q0 -96 -133.5 -444.5t-274.5 -622.5q-163 -316 -233 -316q-41 0 -75 29t-34 70q0 80 139 303q174 281 332 768q-78 -18 -168 -15l2 -51 q4 -96 -90 -166q-86 -61 -188 -61t-187 49q-100 57 -100 151zM250 1186q16 -10 61 -10q94 0 95 36q0 74 -72 152q-33 0 -60 -74q-20 -57 -24 -104zM692 332q0 113 117 196q104 74 223 74q98 0 152 -96q43 -78 43 -187q0 -113 -64.5 -177t-175.5 -64q-102 0 -194 76 q-100 80 -101 178zM897 332q0 -16 35 -32.5t55 -16.5q45 0 45 41q1 30 -24 75q-25 -8 -62 -28q-49 -27 -49 -39z" />
<glyph unicode="&#x26;" horiz-adv-x="1353" d="M242 356q0 172 139 326q-90 207 -90 330q0 205 112 342q121 150 322 149q117 0 195 -121q68 -104 67 -227q0 -152 -119 -295q-55 -68 -239 -225q66 -109 155 -217q29 49 41 94l-8 -4l-10 20q-41 2 -71.5 29t-30.5 66t104 119.5t147 80.5q41 0 73 -29.5t32 -70.5 q0 -45 -39 -86q14 -47 14 -80q0 -100 -59 -215q47 25 88 86q30 56 61 111q-2 43 30 73.5t75 30.5q55 -33 127 -121q82 -98 82 -149q0 -35 -32 -67t-67 -32q-51 0 -102 54q-135 -211 -317 -211q-51 0 -103 18q-131 -115 -262 -115q-121 0 -218 106.5t-97 229.5zM446 356 q0 -35 38 -83t73 -48q37 0 88 35q-84 86 -162 219q-37 -59 -37 -123zM496 1012q0 -84 39 -189q123 102 159 144q88 98 88 188q0 35 -14 82q-18 61 -43 61q-115 0 -176 -88q-53 -78 -53 -198z" />
<glyph unicode="'" horiz-adv-x="360" d="M8 1556q0 72 58 93l118 18q49 8 70 8q43 0 70.5 -28.5t27.5 -71.5q0 -23 -8 -68.5t-8 -68.5q0 -14 8 -41t8 -41q0 -41 -30.5 -70t-71.5 -29q-123 0 -119 197q-123 0 -123 102z" />
<glyph unicode="(" horiz-adv-x="968" d="M12 430q0 336 174 631q166 287 457 473l-6 45l29 76q72 29 71 28q68 0 109 -98q33 -78 33 -155q0 -57 -27 -103q-31 -55 -84 -55l-84 39q-467 -350 -467 -881q0 -172 96 -340q104 -178 258 -235q27 70 43 92q33 51 82 51l72 -29q29 -68 29 -67q0 -68 -72 -215 q-78 -158 -135 -158l-72 31l-26 104q-213 86 -349 313q-131 217 -131 453z" />
<glyph unicode=")" horiz-adv-x="1187" d="M291 -221l31 71q72 31 71 31q68 0 92 -55q238 141 326 471q57 217 57 590q0 178 -100 299q-80 94 -260 190q-20 -70 -98 -69q-119 0 -119 266q0 133 69 133q79 0 132 -92q276 -123 411 -271q168 -184 168 -452q0 -422 -51 -606q-68 -246 -307 -525q-90 -104 -166 -133 l8 -45q0 -37 -35 -65.5t-74 -28.5q-72 0 -118 115q-37 90 -37 176z" />
<glyph unicode="*" horiz-adv-x="698" d="M51 1350l4 20l84 -18l-39 71l39 21l76 -113l100 -20l-28 98l-117 68l18 41l74 -33l-24 80l20 6l25 -82l41 72l36 -27l-57 -119l31 -98l69 74l3 135l43 8l6 -86l57 65l20 -18l-61 -63h86l-4 -43l-135 -13l-68 -73l99 -25l116 68l27 -35l-68 -47l84 -19l-4 -22l-84 20 l39 -74l-39 -18l-76 111l-100 22l29 -98l114 -68l-16 -41l-74 33l25 -82l-21 -4l-26 80l-41 -70l-37 25l59 121l-30 96l-70 -74l-2 -135l-43 -8l-8 86l-56 -66l-22 21l63 59l-88 2l6 43l134 13l69 73l-98 25l-117 -68l-28 37l69 45z" />
<glyph unicode="+" horiz-adv-x="688" d="M119 791l12 204l162 -10l-2 107v120h205q0 -158 2 -231q61 16 155 43l56 -199q-68 -20 -201 -51v-168h-205q0 133 -2 170q-109 10 -182 15z" />
<glyph unicode="," horiz-adv-x="403" d="M49 35q0 113 51 155q16 14 150 72l16 -31q121 -33 121 -194q0 -29 -25 -70l21 31v-23q0 -63 -37 -131q-14 -29 -74 -116l-170 116l41 58q-94 41 -94 133z" />
<glyph unicode="-" horiz-adv-x="663" d="M84 530v205h453v-205h-453z" />
<glyph unicode="." horiz-adv-x="503" d="M176 96q0 61 53 113q25 23 107 74q156 -106 156 -203q0 -63 -48 -100t-114 -37t-110 44t-44 109z" />
<glyph unicode="/" horiz-adv-x="1013" d="M-129 186l186 88l37 -84q0 211 74 461q55 186 170 447q96 213 192 428l-104 41l76 190l110 -45l11 21q133 -72 323 -86l-16 -205q-127 8 -207 24q-264 -614 -279 -653q-152 -375 -223 -672l80 -32l-78 -189q-184 74 -211 88q-82 53 -141 178z" />
<glyph unicode="0" horiz-adv-x="1333" d="M61 872q0 783 510 752l23 33q90 -66 182 -131q106 -72 195 -109l-17 -39q287 -285 287 -649q0 -289 -158 -514q-176 -252 -452 -252q-299 0 -453 324q-117 248 -117 585zM266 895q0 -283 82 -479q27 90 101 227q88 164 112 223q33 82 78 228q49 166 72 229q-70 59 -80 66 q-49 32 -94 32q-270 0 -271 -526zM520 195q51 -27 111 -27q188 0 305 192q100 166 100 369q0 242 -166 440q-68 -252 -120 -381q-72 -143 -146 -286q-84 -174 -84 -307z" />
<glyph unicode="1" horiz-adv-x="557" d="M-111 1380q143 63 197 103q88 66 129 178l191 -53q-76 -377 -76 -1123q0 -225 14 -356q53 -2 164 -14l-25 -205q-88 12 -157 12q-41 0 -334 -37l-25 205l172 21q-14 139 -14 340v213q0 365 22 610q-49 -27 -176 -82z" />
<glyph unicode="2" horiz-adv-x="970" d="M-61 1073q0 254 182 444.5t436 190.5q125 0 229 -178q94 -158 95 -293q0 -195 -129 -387q-10 -16 -260 -326q-158 -197 -203 -358q106 29 278 4l97 129l167 -119l-124 -170l-5 -61l-26 2l-29 -101l-198 52l22 75l-61 3q-84 4 -181 -60q-80 -57 -159 -117v344 q0 193 157 388q145 162 291 321q158 193 158 381q0 66 -35 146.5t-84 119.5q-168 0 -291 -130t-123 -300q0 -47 45 -84q41 39 113 96l129 -157q-80 -66 -272 -295l-156 135l57 68q-121 106 -120 237z" />
<glyph unicode="3" horiz-adv-x="962" d="M-170 1352l145 145l74 -78q125 63 390.5 147.5t387.5 145.5q-51 -129 -174 -350q-131 -238 -178 -348l70 6q186 0 291 -184q86 -152 86 -353q0 -231 -157 -383.5t-388 -152.5q-303 0 -348 366l-117 -24l-41 200q281 61 383 62q68 0 162 -8l-21 -205q-113 12 -168 12 q14 -199 150 -198q145 0 242.5 93t97.5 238q0 106 -35 203q-49 129 -137 129q-43 0 -541 -293q76 143 203 418q133 287 201 418q-125 -51 -230 -103l53 -84l-174 -108q-102 164 -227 289z" />
<glyph unicode="4" horiz-adv-x="1009" d="M-213 104q80 504 154 713q92 258 352 643q150 221 254 221q102 0 129 -520q10 -326 20 -651l66 31l-25 108l199 47q27 -106 147 -420l-192 -73l-57 143l-105 -43l29 -153l63 20l62 -197q-92 -29 -365 -168l-90 185l133 67q-4 74 -35 207q-137 -18 -370 -76 q-262 -66 -369 -84zM33 358q156 45 461 109q-35 332 -45 860q-350 -498 -416 -969z" />
<glyph unicode="5" horiz-adv-x="1146" d="M-127 524l37 201q195 -37 432 -156l-92 -182l-105 51q23 -117 140 -231q125 -121 239 -121q184 0 256 41q100 55 101 225q0 119 -93 191q-84 68 -206 67q-47 0 -201 -204q-72 313 -72 655q0 516 158 516q119 0 356 -49v123h205v-103q0 -57 -22 -297l-205 13l4 57 q-90 18 -262 47q-10 -104 -19 -209q-10 -125 -8 -209l2 -143q63 8 64 8q205 0 350 -127q154 -133 153 -336q0 -258 -157 -372q-135 -98 -404 -99q-219 0 -411.5 206t-169.5 423z" />
<glyph unicode="6" horiz-adv-x="1177" d="M70 653q0 393 96 643q141 362 469 363q324 0 457 -440l104 28l51 -198q-254 -66 -432 -154l-92 182q88 45 176 78q-80 299 -264 299q-201 0 -297 -264q-74 -197 -68 -432l4 -152q131 102 312 103q170 0 280 -125q104 -121 105 -293q0 -186 -82 -295q-90 -123 -271 -123 q-317 0 -450 246q-98 186 -98 534zM313 250q20 -59 131 -119q104 -53 174 -53q92 0 125 65q23 45 23 148q0 90 -43 149q-49 63 -137 64q-70 0 -135 -21q-88 -29 -89 -84q0 -10 37 -120z" />
<glyph unicode="7" horiz-adv-x="1132" d="M-119 1542q328 -96 488 -96q346 0 479 219l176 -102q-102 -182 -211 -723h150v-205l-187 -2q-33 -211 -28 -354l4 -187l112 39l70 -192q-98 -35 -436 -111l-47 199l98 22q-8 47 -8 98q0 264 24 449q-70 -18 -170 -55l-67 194q166 57 274 80q43 219 105 481 q-166 -59 -443 -55l55 -170l-190 -72q-137 367 -248 543z" />
<glyph unicode="8" horiz-adv-x="1216" d="M4 1040q0 182 129 377q141 217 313 217q631 0 631 -536q0 -246 -145 -473q219 -100 219 -269q0 -162 -72 -282q-83 -144 -235 -144q-164 0 -305 97q-158 106 -158 264q0 74 37 137q-178 70 -296 245t-118 367zM209 1040q0 -150 110 -290q117 -147 263 -148q123 0 213 193 q78 164 77 303q0 156 -47 221l-49 -37l-49 64q-29 -18 -113 -107l-145 145l43 43l-66 3q-76 2 -159 -158q-78 -145 -78 -232zM586 291q0 -63 100 -113q86 -43 158 -43q102 0 102 221q1 58 -149 105q-68 -20 -129 -64q-82 -55 -82 -106z" />
<glyph unicode="9" horiz-adv-x="919" d="M-238 238q117 63 177 90q100 43 190 55q-248 178 -248 715q0 221 154 418q164 209 379 208q199 0 288 -243q70 -182 70 -465q0 -104 -10 -195l57 -20q-27 -57 -110 -348q-70 -238 -150 -349q-115 -158 -305 -157q-123 -1 -248 192l-145 -82zM86 1098q0 -569 238 -570 q51 0 127 70q127 113 127 399q0 221 -19 285q-24 76 -149 238q-125 -4 -228 -154q-96 -137 -96 -268zM203 344l18 -156l-14 -2q27 -35 47 -34q25 0 91.5 46t86.5 70q29 31 49 103q-84 -47 -157 -47q-66 0 -121 20z" />
<glyph unicode=":" horiz-adv-x="489" d="M86 750q0 68 55 124q31 31 113 89l35 -50q57 -6 91 -49t34 -102q0 -72 -49.5 -124t-118.5 -52q-72 0 -116 46t-44 118zM102 225q1 125 93 162l22 45q150 -72 154 -76q92 -57 92 -131t-56.5 -147.5t-127.5 -73.5q-129 0 -150 143q-27 33 -27 78z" />
<glyph unicode=";" horiz-adv-x="514" d="M70 160q0 20 49 180l41 -12l10 18q66 -41 145 -63l-6 -21l4 -4l23 14q41 -59 80 -118q47 -76 47 -129q0 -80 -55 -158q-29 -45 -113 -127l-145 145q31 27 79 80q-66 14 -112.5 70.5t-46.5 124.5zM86 750q0 68 55 124q31 31 113 89l35 -50q57 -6 91 -49t34 -102 q0 -72 -49.5 -124t-118.5 -52q-72 0 -116 46t-44 118zM260 -37v-26q31 18 31 24q-2 2 -8 2h-23z" />
<glyph unicode="&#x3c;" horiz-adv-x="823" d="M-49 446q90 129 231 283q129 131 256 262l-39 96l189 78q39 -100 84 -133q23 -18 141 -67l-78 -189q-98 39 -153 72q-102 -98 -299 -301q86 -8 249 -35l25 76l195 -64q-84 -225 -84 -315h-205v104q-244 51 -260 54q-147 35 -252 79z" />
<glyph unicode="=" horiz-adv-x="868" d="M70 758l16 205q63 -4 252 -33q158 -23 254 -23q88 0 260 31l37 -201q-152 -29 -232 -35v-2h-135v5q-150 20 -452 53zM139 639q256 10 277 10q252 0 442 -96l-92 -182q-145 72 -371 71q-16 0 -248 -8z" />
<glyph unicode="&#x3e;" horiz-adv-x="929" d="M-63 1049l245 284l152 -139l-62 -66q213 -166 345.5 -239.5t379.5 -161.5q-408 -162 -635 -297l27 -92l-199 -55q-33 100 -67 198q-39 121 -49 205l202 27l13 -86q90 53 178 98q-82 51 -328 244l-49 -58z" />
<glyph unicode="?" horiz-adv-x="1060" d="M12 1032q0 248 144 426q156 193 397 193q184 0 309 -148.5t125 -335.5q0 -160 -84 -352q-92 -211 -215 -285q-43 -23 -84 -43q-51 -26 -76 -57q12 -82 25 -246h-205q0 41 -12 122t-12 124q0 90 118 186q182 145 222 193q119 147 118 358q0 102 -61 187q-70 92 -168 92 q-154 0 -250 -133q-86 -121 -86 -281q0 -90 39 -127q25 -25 121 -59l-72 -191q-174 63 -229 127q-63 74 -64 250zM330 -55l96 -2l-45 63l94 -2q-27 31 -51 64l29 12l43 -66l49 64l47 -66q12 23 43 68q10 -6 27 -12l-48 -64l93 -2l-48 -61h95l-2 -25l-95 4l45 -65h-94l49 -62 q-5 -4 -30 -12l-39 65l-49 -63l-45 65q-14 -23 -48 -63l-26 10q16 25 51 64l-94 2l49 61q-88 -2 -82 -2h-14l2 12zM399 -131h80l41 53h-80zM401 -4l39 -55h80l-39 55h-80zM500 -141l39 -56l41 54l-39 55zM504 4l39 -55l41 57l-39 51zM561 -59l82 -2l41 55l-78 -2zM561 -78 l41 -57h80l-39 55z" />
<glyph unicode="@" horiz-adv-x="1187" d="M-37 631q0 324 152 506q164 195 483 194q227 0 369 -160q135 -154 135 -385q0 -152 -58 -256q-70 -125 -200 -124q-26 0 -53 4l131 -84l43 41l73 -82l158 -37l-47 -199l-191 47q-145 -92 -356 -92q-639 0 -639 627zM168 631q0 -231 101.5 -326.5t332.5 -95.5q55 0 107 8 l-66 45l113 158q-43 16 -78 49q-59 -96 -186 -96q-104 0 -169 79.5t-65 186.5q0 109 70 213q74 117 176 127v90h205v-57q0 -51 4 -88l35 -15l-23 -57q43 -242 102 -242q70 0 70 123q0 393 -299 393q-233 0 -338 -135q-92 -119 -92 -360zM463 639q0 -61 29 -61q20 0 20 53 v102h29q-7 21 -11 41h-6q-27 0 -45 -55q-16 -47 -16 -80z" />
<glyph unicode="A" horiz-adv-x="899" d="M-123 -12l57 196l58 -16q31 332 59 663q45 379 127 652h-78v205q180 0 389 18l19 -203l-98 -10q72 -166 155 -655q80 -449 172 -607l121 56l82 -189q-119 -51 -162 -80q-68 -43 -131 -124l-162 124q29 39 80 101l-35 65q-74 -10 -183 -10q-68 0 -150 4l-2 -35h49v-204 q-23 0 -68 -4.5t-67 -4.5q-57 0 -232 58zM215 383q16 -2 49 -2h105q53 0 98 4q-35 291 -156 715q-53 -223 -96 -717z" />
<glyph unicode="B" horiz-adv-x="817" d="M-209 1307l197 389l80 -123q106 45 186 45q238 0 387.5 -147.5t149.5 -385.5q0 -365 -238 -573q147 -94 147 -270q0 -311 -389 -312q-47 0 -88 23l-18 -74l-195 64q33 104 37 116q27 66 66 103q6 90 6 121q0 16 -60.5 463.5t-70.5 496.5l-8 -18zM156 1389 q49 -135 61 -385q12 -279 39 -388q213 76 271.5 160t58.5 309q0 154 -89 241t-243 87q-39 0 -98 -24zM315 356q8 -55 9 -106q-1 -56 -7 -113h21q158 0 158 105q0 123 -156 123q-8 0 -25 -9z" />
<glyph unicode="C" horiz-adv-x="944" d="M86 631q0 268 82 471q111 278 334 278h2q154 0 246 -149q71 -117 96 -291l133 -135q-84 -86 -154 -131q-57 -39 -178 -94l-88 184l92 43q0 369 -147 369q-213 0 -213 -545q0 -455 221 -455q47 0 86 170q2 10 39 219l199 -47q-18 -115 -37 -229q-31 -145 -88 -219 q-72 -98 -199 -99q-219 0 -334 232q-92 184 -92 428z" />
<glyph unicode="D" horiz-adv-x="970" d="M-168 1255q102 128 178 187l-10 43q57 12 205 82q125 59 209 59q274 0 422 -354q112 -266 112 -582v-6q0 -303 -59 -453q-94 -235 -346 -235h-2q-137 0 -226 37v-172q-197 129 -344 194l84 187l95 -43l-21 53l31 12q-4 446 -101 942l-69 -80zM240 1354 q125 -580 125 -1121q61 -32 169 -32h7q145 0 188 207q18 90 19 319q0 270 -58 383q-162 311 -276 311q-68 0 -174 -67z" />
<glyph unicode="E" horiz-adv-x="759" d="M-262 1182l26 202q94 -12 175 -12q178 0 430 109q344 150 413 170q0 -82 20.5 -250t20.5 -250h-205q0 141 -20 227q-123 -59 -369 -166q-6 -115 -32 -378q85 30 277 30h13v-205q-199 0 -311 -59q-18 -210 -18 -274v-11l6 -153q213 92 346 112q-27 115 -64 344l205 17 q6 -74 43 -279q31 -174 31 -278q-186 0 -373 -62q-51 -18 -348 -141q-49 264 -49 387q0 190 22 453q20 225 43 450l-106 -2q-35 0 -176 19z" />
<glyph unicode="F" horiz-adv-x="722" d="M-133 1229l51 198q115 -30 147 -30h5l96 4q-2 10 8 12q6 2 23 0l18 -4q205 0 543 297q55 -147 72.5 -250.5t17.5 -263.5h-205l-2 164q-152 -90 -315 -133q-23 -92 -25 -281v-104l158 61q27 -90 51 -180q35 -104 84 -166l-156 -131q-53 63 -73 94q-35 57 -41 111l-37 -11 l-4 -194v-20q0 -110 39 -275h165v-205q-235 0 -389 -51l-63 195l84 26q-41 174 -41 365v202q0 322 35 533q-98 0 -246 37z" />
<glyph unicode="G" horiz-adv-x="985" d="M-119 815q0 279 117 520q147 299 395 299q176 0 301 -239q98 -190 98 -362q0 -19 -1 -38l94 19l39 -203q-221 -39 -363 -123l-102 176l119 68v72h8v55q0 70 -66 213q-72 158 -127 158q-143 0 -235 -246q-72 -195 -72 -369q0 -199 78 -409q100 -270 262 -271 q125 0 211 109q-47 119 -74 219q-119 0 -287 115l113 170q117 -80 176 -80q84 0 359 45l26 -203l-180 -25q27 -90 72 -204l41 -21l-19 -37l80 -198l-190 -76l-35 88q-131 -106 -293 -107q-266 0 -422 324q-123 260 -123 561z" />
<glyph unicode="H" horiz-adv-x="911" d="M-86 1540l184 86q104 49 178 96l111 -172l-104 -65q0 -162 -11 -432q-10 -326 -12 -432q129 25 293 36q43 135 68 367q31 281 49 371l-158 110l117 170q121 -92 155 -108q63 -31 183 -35l-9 -205l-94 4q-12 -63 -39 -340q-23 -209 -63 -336q-29 -88 -29 -131 q0 -186 49 -370l76 -17l-41 -200l-358 63l37 201l65 -13q-25 125 -31 261q-141 -12 -270 -39q4 -68 33 -228q53 -6 129 -6v-205q-17 -1 -33 -1q-61 0 -115 12v-2q-94 -33 -213 -93l-92 183l125 63q-41 246 -41 334q0 172 10 463q12 338 15 461l-78 -35z" />
<glyph unicode="I" horiz-adv-x="503" d="M-86 1405v205h76q63 0 110 6l2 24l82 -4l150 66l90 -184l-129 -60l-6 -229v-21q0 -129 22 -356q27 -260 27 -379q0 -51 -13.5 -151.5t-13.5 -149.5q61 -14 181 -35l-27 -203q-55 6 -160 29l-31 -47l-43 29l-51 -64l-160 127q31 39 91 105l-2 86v11q0 44 13 116 q15 82 15 123q0 154 -26 479q-23 290 -23 454v25l-72 -2h-102z" />
<glyph unicode="J" horiz-adv-x="649" d="M-211 907l135 156q86 -76 156 -100q61 -25 182 -31l-10 -203l-148 10q-27 -236 -26 -264q0 -123 57 -225q68 -123 180 -123q115 0 115 356q0 104 -21.5 310t-21.5 311q0 53 -39 143q-32 72 -63 142q-170 10 -402 149l107 176q195 -121 329 -121q35 0 295 93l64 -195 l-191 -66q90 -381 105 -458q43 -236 43 -484q0 -184 -70 -350q-92 -211 -250 -211q-201 0 -327 180q-115 162 -115 373q0 61 14 170q16 121 19 170q-39 27 -117 92z" />
<glyph unicode="K" horiz-adv-x="819" d="M-119 1479v204q164 0 412 52l41 -201l-150 -31q39 -309 39 -477q0 -55 -26 -420q205 188 282 498q57 221 58 577q180 -59 370 -151l-90 -184l-90 45q-27 -145 -51 -291q-33 -172 -78 -287q-57 -147 -154 -250l244 -321l84 65l125 -162l-147 -120v-103h-205q-2 27 -2 51 q0 64 12 107q-61 74 -258 340l-102 -86q6 -115 26 -215q68 2 146 12l26 -203q-100 -14 -149 -14q-63 0 -176 20q-119 23 -174 25l8 205l102 -4q-16 113 -16 248q0 106 14 321t14 322v8q0 151 -36 420h-99z" />
<glyph unicode="L" horiz-adv-x="811" d="M-84 1470l31 203q139 -22 188 -22h4q63 0 193 57l82 -188l-135 -54q-12 -156 -13 -221q0 -137 28 -407.5t28 -407.5q0 -55 -35 -272q94 23 282 59l-53 164l-102 18l35 203q184 -33 210 -33q10 0 183 29l26 -203l-137 -20q57 -186 66 -355q-133 0 -365 -38 q-256 -43 -362 -50v109q0 63 23.5 189t23.5 190q0 145 -25.5 435t-25.5 433q0 86 6 162z" />
<glyph unicode="M" horiz-adv-x="1095" d="M-174 1540l76 191q135 -55 213 -56l139 39l18 -69l25 -3q-3 -16 -3 -36q0 -39 11 -90l-16 -5q-2 -236 237 -600q37 211 125 625l-76 16l43 199q178 -33 228 -45q113 -31 213 -90l-107 -176l-80 47q8 -649 13 -701q18 -399 96 -692h145v-205q-215 0 -374 -61l-72 190 l102 39q-27 109 -71 508q-127 -25 -260 -98l-99 180l78 41l-139 211q-2 -63 -12 -256q-8 -160 -9 -256q0 -158 23 -281q51 -4 121 -4h49v-204h-103q-88 0 -395 51l33 201l82 -13q-10 92 -10 203q0 94 10 280.5t10 280.5q0 100 -24 287q-25 197 -27 287q-72 8 -213 65z" />
<glyph unicode="N" horiz-adv-x="972" d="M-113 1636l447 90l41 -200l-43 -8v-35q0 -252 207 -692l-2 118v10q0 222 174 533l-103 51l92 183l410 -185l-84 -186l-127 55q-158 -276 -158 -477q0 -139 23 -352q37 -319 39 -353l67 17l48 -199q-119 -33 -353 -84l-37 201l68 12q-18 135 -121 352q-88 170 -174 340 q-12 -176 -12 -284q0 -225 47 -396q50 -5 119 -5q23 0 49 1v-204q-31 0 -119 4q-74 4 -119 4q-23 0 -62.5 -12.5t-62.5 -12.5q-61 0 -92 88q-12 37 -29 140l101 16q-37 166 -37 377q0 96 14.5 289.5t14.5 289.5q0 109 -25 346l-160 -32z" />
<glyph unicode="O" horiz-adv-x="1030" d="M-94 1016q0 225 184 442q193 225 414 225q236 0 348 -223q86 -172 86 -432q0 -285 -127 -643q-160 -446 -385 -446q-61 0 -190 63l8 21q-338 319 -338 993zM111 1016q0 -297 51 -469q27 -88 100 -219q88 -150 148 -176q18 -8 32 -9q90 0 197 394q94 346 94 491 q0 451 -229 451q-135 0 -268 -166q-125 -158 -125 -297z" />
<glyph unicode="P" horiz-adv-x="802" d="M-199 1454q184 125 228 148q135 73 255 73h3q248 0 381 -198q114 -171 114 -429q0 -260 -86 -452q-115 -256 -336 -256q-104 0 -180 35l21 -215l90 43l92 -183q-53 -27 -412 -180l-82 189l117 49q-61 466 -61 1033q0 96 2 194l-33 -21zM147 1260q1 -154 7 -410l24 2 q14 -170 25 -205q37 -102 157 -102q129 0 183 196q35 125 35 303q0 170 -60 283q-76 143 -231 143q-63 0 -121 -24q-18 -86 -19 -186z" />
<glyph unicode="Q" horiz-adv-x="864" d="M-307 692q0 150 67 373q74 250 187 410q136 192 289 192h2q227 0 368 -158l41 13q47 -137 94 -275q49 -160 50 -284q0 -555 -197 -834l22 -80l162 162l146 -145q-76 -78 -152 -158q-104 -92 -186 -92q-96 0 -158 157q-104 -59 -235 -59q-242 0 -383 281 q-117 231 -117 497zM-102 692q0 -168 69 -346q88 -227 226 -227q94 0 163 55q-31 57 -84 166l-131 -78l-100 178q143 82 178 97q88 39 199 53q27 -131 71 -225q96 229 97 598q-1 114 -64 292l-8 -2q-74 209 -276 209q-109 0 -232 -332q-109 -297 -108 -438z" />
<glyph unicode="R" horiz-adv-x="866" d="M-160 1493q106 55 215 109q129 57 232 57q283 0 393 -258q78 -178 78 -504q0 -264 -324 -442q133 -125 178 -207l140 80l100 -178q-145 -82 -397 -297q0 233 -27 292q-25 53 -195 222l-81 -27l34 -240l117 37l64 -194q-141 -33 -414 -115l-68 195l97 32q-68 481 -68 690 q0 369 31 570l-21 -8zM119 774q0 -123 8 -227q94 31 145 82l17 -19q135 66 190 125q74 80 74 209q0 217 -35 326q-61 184 -231 184q-49 0 -111 -24q-57 -209 -57 -656z" />
<glyph unicode="S" horiz-adv-x="925" d="M-201 983q0 266 80 451q106 249 336 249h2q213 0 389 -194q147 -164 217 -393l97 37l73 -193l-133 -51l2 -27l-63 -4q-53 -59 -107 -139l-170 112q41 63 125 166q-29 147 -153 306q-141 176 -277 176q-141 0 -188 -191q-25 -98 -25 -305q0 -201 215 -313 q199 -76 397 -152q215 -88 215 -227q0 -123 -140 -242t-265 -119q-183 0 -322 207l-45 -59l-161 125q92 119 178 159q78 33 237 37l4 -204q49 -59 109 -60q49 0 113 51q53 45 84 95q-111 102 -353 172q-248 70 -327 135q-143 119 -144 395z" />
<glyph unicode="T" horiz-adv-x="739" d="M-246 1442q0 184 256 184q35 0 97.5 -3t87.5 -3q147 0 358 31l-2 12l194 63q25 -90 48 -180q31 -104 65 -174l-182 -92q-31 59 -72 172q-121 -18 -215 -27q6 -406 107 -1302l129 49l71 -190q-143 -59 -428 -170l-71 190l106 41q-78 276 -100 682q-10 154 -19 692l-182 8 l-37 -39l23 -88l-197 -57q-37 121 -37 201z" />
<glyph unicode="U" horiz-adv-x="1093" d="M-111 1446v205q74 0 229.5 4t229.5 4v-205h-108l2 -96v-13q0 -110 -31 -303q-35 -211 -35 -313q0 -145 57 -326q63 -190 152 -292q193 0 291 475q65 317 65 630v9l-36 80l-121 -58l-90 185q166 80 473 137l37 -201l-91 -16q33 -63 33 -127q0 -113 -29.5 -318t-58.5 -409 q-45 -268 -137 -408q-119 -184 -336 -184q-184 0 -311 332q-102 266 -103 491q0 97 34 291q32 184 32 283v12l-2 131h-146z" />
<glyph unicode="V" horiz-adv-x="903" d="M-174 1460q190 131 342 256l131 -155l-127 -105q-20 -66 -20 -145q0 -176 88 -441q117 -344 135 -430q80 209 141 504q45 256 92 514l-104 47l84 187q180 -100 211 -115q123 -57 227 -64l-12 -204q-137 6 -219 34q-100 -588 -154 -800q-125 -487 -319 -729 q-117 360 -224 749q-147 545 -151 733l-6 -4z" />
<glyph unicode="W" horiz-adv-x="978" d="M-135 1497q49 41 135 105l4 47l64 -4l108 88l131 -156l-108 -88l-2 -234v-27q0 -167 22 -386q27 -207 51 -412q37 188 43 422l-75 8l24 205q164 -20 365 -21v-204h-103q14 -244 107 -570q98 342 98 854q0 72 -12 131l-8 -16l-183 92q59 117 154 207q18 18 199 164 l135 -156q-76 -66 -137 -110q55 -211 55 -297q0 -438 -58 -699q-90 -401 -331 -585l-113 374q-45 -150 -223 -520q-104 512 -150 811q-65 444 -65 810v11z" />
<glyph unicode="X" horiz-adv-x="1003" d="M-160 1632q180 16 416 72l47 -199l-53 -12l248 -610q31 98 75 319q43 209 80 318l-135 65l92 182l238 -106q137 -63 227 -125l-112 -170q-74 49 -123 76q-45 -123 -113 -432q-61 -279 -127 -426q23 -88 43 -178q29 -102 62 -173l116 91l125 -162q-141 -102 -162 -121 q-70 -68 -98 -176l-199 55q18 66 66 176q-49 61 -90 209q-92 -178 -135 -282l88 -97l-154 -137q-121 121 -151 158q-76 90 -111 190l182 64l199 397q-51 162 -162 428q-129 311 -170 426q-72 -12 -190 -22z" />
<glyph unicode="Y" horiz-adv-x="899" d="M-264 551l53 197q127 -33 426 -160l-78 -189l-94 39q-14 -74 -14 -73q0 -74 34 -138q40 -75 107 -75h2q102 0 176 247q8 31 74 338q-152 96 -268 285q-75 116 -177 354l-69 -43l-107 176l127 80l-16 -63q49 104 256 237l113 -170l-134 -92q113 -254 140 -305 q92 -170 207 -260q47 113 92 309q55 238 80 314q-53 53 -129 161l168 119q123 -176 327 -280l-96 -183l-98 54q-63 -256 -125 -512q-111 -414 -226 -650q-156 -321 -314 -321h-1q-156 0 -256 135q-92 123 -92 283q0 63 29 153z" />
<glyph unicode="Z" horiz-adv-x="813" d="M-176 1708h205v-141q121 41 325 88q254 59 330 80v-136q0 -84 -258 -673q-276 -633 -313 -793q143 27 354 39l-4 178l196 15q14 -113 27 -228q18 -131 53 -221l-192 -74l-45 131q-367 -39 -639 -112q49 381 217 819q115 295 352 774q-188 -43 -192 -43q-111 -29 -191 -59 l12 -144l-204 -16q-33 414 -33 516z" />
<glyph unicode="[" horiz-adv-x="514" d="M90 446q0 102 18.5 309.5t18.5 309.5q0 68 -17.5 199t-17.5 198q0 102 49 248q106 -25 297 -24v-205l-139 -2v-19q0 -66 16.5 -192.5t16.5 -192.5q0 -104 -18.5 -314t-18.5 -315q0 -14 10 -462q57 12 162 12v-205q-98 0 -193 -43q-20 -10 -172 -96q0 131 -6 396t-6 398z " />
<glyph unicode="\" horiz-adv-x="907" d="M-23 1458q80 158 342 252l68 -194l-80 -31q213 -479 297 -834q33 -160 64 -317q41 -186 110 -303l125 32l35 -202q-118 -21 -268 -117l-109 174l33 21q-74 125 -117 323q-35 170 -69 340q-78 328 -279 780z" />
<glyph unicode="]" horiz-adv-x="667" d="M92 1479l37 202q164 -31 369 -30q14 -381 14 -426q0 -211 -28.5 -633t-28.5 -633q0 -139 -297 -137v205l92 2q4 174 33 598q25 381 24 598q0 88 -6 223q-72 6 -209 31z" />
<glyph unicode="^" horiz-adv-x="776" d="M49 1382l168 117l12 -16q88 61 211 235q49 -113 166 -321l53 22l82 -188q-96 -39 -286 -123l-84 186l45 21l-19 35q-25 -20 -55 -41l6 -11l-180 -98q-23 41 -119 182z" />
<glyph unicode="_" horiz-adv-x="1384" d="M162 -68l16 205q229 -27 461 -53q274 -31 461 -31q49 0 133 19q94 18 131 22l22 -203q-12 -2 -143 -26q-86 -17 -143 -17q-178 0 -469 35q-358 43 -469 49z" />
<glyph unicode="`" horiz-adv-x="520" d="M57 1548l19 70q41 41 94 41q68 0 135 -98l90 -156l-174 -107q-35 53 -74 125l-14 -8z" />
<glyph unicode="a" horiz-adv-x="1150" d="M20 866l177 140l43 -56q133 240 403 240q197 0 307 -215q88 -172 88 -389q0 -119 -20 -248l31 -21q-53 -80 -91 -213q-25 -115 -51 -229l-217 57l8 33q-139 -78 -276 -78q-147 0 -238.5 80t-91.5 226q0 168 141 262q84 57 303.5 121.5t294.5 117.5q-57 162 -59 168 q-51 102 -129 103q-137 0 -201 -113l58 -6l-25 -225q-166 16 -258 65q-98 51 -197 180zM74 1184l4 24l35 -6l-11 31l21 6l16 -41l43 -8l-12 43l-43 12l4 21l33 -9l-10 35l24 8l8 -32l25 28l10 -20l-28 -35l12 -41l31 35l-9 43l19 10l8 -33l25 29l16 -16l-25 -27l33 -4 l-8 -20l-43 4l-33 -35l43 -6l33 30l20 -8l-26 -26l33 -7l-5 -24l-34 6l10 -31l-21 -6l-14 41l-45 8l12 -43l43 -10l-4 -23l-31 9l11 -35l-27 -6l-8 32l-23 -28l-10 18l27 35l-10 41l-33 -35l10 -43l-20 -10l-9 33l-24 -27l-17 14l27 29l-35 2l8 23l43 -6l33 34l-43 9 l-31 -31l-20 8l24 27zM317 193q0 -51 29 -68q20 -12 76 -12q84 0 212 76.5t157 150.5q2 4 14 96q-246 -78 -279 -90q-209 -82 -209 -153z" />
<glyph unicode="b" horiz-adv-x="882" d="M-117 16l131 50q2 125 19 415q14 268 14 418l-8 272q-1 41 -1 79q0 113 9 194l-147 55l80 211q154 -57 172 -57q47 0 196 63l86 -209q-55 -25 -164 -63q-12 -74 -12 -168q0 -72 6 -236q6 -122 6 -199v-36q59 20 123 20q190 0 307 -100q121 -107 121 -295 q0 -170 -147.5 -331.5t-317.5 -174.5l-57 -137q-139 68 -193 68l-143 -50zM246 272q66 -123 88 -122q78 0 170 100t92 180q0 170 -203 170q-68 0 -133 -70zM614 1159v4q6 6 68 11l-43 57l70 8q-18 18 -41 53q14 16 24 17l41 -54l29 66l43 -55q14 43 26 63h-2l21 -8l6 -10 q-8 -20 -25 -58l72 9l-29 -66q39 8 66 12q6 -14 6 -30q-27 -6 -67 -13l43 -55l-70 -8q18 -20 41 -55q-6 -8 -25 -17q-16 18 -41 53l-28 -65l-43 55l-21 -55l-8 -6q-18 10 -27 16q8 20 27 57l-70 -8l29 66q-59 -8 -65 -8q-6 12 -7 24zM676 1214l29 -38l49 6l-31 37zM688 1102 l49 4l21 47l-49 -6zM748 1237l28 -39l19 45l-29 39zM764 1096l31 -39l18 45l-29 41zM803 1186l51 8l18 43l-51 -4zM805 1159l33 -39l47 6l-29 37z" />
<glyph unicode="c" horiz-adv-x="813" d="M-31 430q0 211 125 354q133 152 340 152q197 0 309 -205l-2 2l58 19l47 -220q-102 -23 -148 -51q-20 -14 -116 -102q63 -20 63 -21q27 0 135 31l31 -223l-37 -10q-31 -119 -145 -191q-104 -65 -232 -65h-4q-199 0 -317 172q-106 152 -107 358zM133 1040q0 10 6 17 q16 -2 41 -6l-10 41l43 -9l-10 37q6 6 16 8l4 -2l8 -34l33 32l10 -41q18 23 29 33q8 -4 14 -10q-12 -14 -30 -33l41 -8l-33 -33q18 0 41 -8q-2 -10 -8 -16l-39 6l10 -41l-43 8q8 -35 8 -37q0 -8 -18 -8q-4 12 -8 37l-33 -33l-10 41q-8 -12 -31 -31q-8 4 -14 11q12 14 32 32 l-41 6l31 33q-16 2 -39 8zM164 1008l29 -4l24 22l-31 4zM186 1077l7 -28l28 -7l-6 29zM205 993l6 -28l25 22l-9 29zM233 1077l7 -28l24 24l-6 29zM246 1022l6 -29l31 -4l-7 29zM252 1038l29 -4l24 23l-31 4zM254 401q0 -276 139 -276q74 0 123 37l-6 12q-14 8 -43 16l63 216 l15 -17l-70 223l27 17l8 -2l27 14q-43 70 -103 70q-180 0 -180 -310z" />
<glyph unicode="d" horiz-adv-x="980" d="M127 793q125 106 307 106q59 0 117 -12q-1 49 -1 189t1 370l-156 63l82 209q59 -29 176 -69l92 88l152 -168q-41 -39 -121 -105v-290q0 -844 78 -1020h156v-226q-154 0 -219 -12q-86 -14 -209 -74l-54 111q-55 -25 -112 -25q-184 0 -310 197q-112 170 -112 364 q0 189 133 304zM219 492q0 -86 57 -203q63 -135 140 -135q33 0 178 127q-21 209 -31 352q-33 37 -106 37q-238 0 -238 -178zM858 362v15l6 2q14 -6 35 -12l-16 45l41 -13q-10 27 -15 43q8 4 17 4q6 -14 14 -40l25 30l18 -43q6 10 21 29h2q14 0 14 -12q-8 -12 -25 -31l41 -10 l-24 -33q14 -4 39 -12l2 -7l-4 -12h-5l-34 10l16 -43l-41 11q10 -25 14 -41q-6 -4 -16 -4q-6 14 -14 41l-27 -33l-14 43q-14 -20 -23 -31q-8 2 -16 16l24 29l-43 12l27 33q-27 6 -39 14zM893 322l29 -9l18 23l-31 8zM901 393l10 -31l31 -8l-12 31zM934 301l12 -31l19 23 l-13 31zM946 391l10 -33l19 25l-12 31zM969 328l10 -31l29 -6l-13 28zM971 346l28 -8l17 22l-29 9z" />
<glyph unicode="e" horiz-adv-x="1003" d="M88 537q0 168 72 315q84 174 229 213l-8 18l22 21l21 -21l-2 -10l70 2q12 1 23 1q210 0 321 -175q100 -154 100 -397v-115q-78 2 -293 25q115 -70 252 -135l-96 -203l-64 28q-96 -135 -250 -135q-195 0 -305 195q-92 162 -92 373zM299 1141l27 12l-23 14l12 15l31 -19 l33 17l-29 18l-33 -12l-12 14l29 10l-23 17l11 18l24 -16v26l19 -2l-3 -36l29 -23l4 39l-26 22l10 17l20 -19l4 31l19 -2l-4 -29l26 13l2 -19l-30 -18l-6 -35l32 16l9 37l18 2l-6 -28l26 12l9 -19l-29 -12l25 -14l-13 -14l-30 20l-35 -16l28 -21l33 12l12 -12l-26 -12 l22 -17l-12 -18l-22 18l-2 -28l-17 2l2 39l-31 20l-4 -37l27 -24l-8 -15l-21 17l-4 -31l-20 4l4 29l-27 -14v18l31 18l4 35l-33 -16l-8 -37h-16l4 29l-27 -15zM319 614q2 0 5 -2q37 0 109.5 16.5t109.5 16.5q59 0 155 -16q-43 221 -235 221q-57 0 -101 -92q-33 -70 -43 -144 zM330 387q45 -192 154 -192h1q30 0 50 20l-93 59l95 146q-35 0 -103.5 -16.5t-103.5 -16.5z" />
<glyph unicode="f" horiz-adv-x="862" d="M-123 612l10 226l144 -9q4 297 71 508q104 319 330 320q143 0 244 -160q90 -143 90 -313q0 -66 -16 -115l49 -6l-33 -223q-137 18 -217 55q-57 25 -191 115l125 186l58 -37l2 35v11q0 49 -29 126q-37 100 -82 101q-178 0 -178 -483v-21v-92l61 6q84 0 140 -119 q4 -8 63 -193l-201 -100l-34 72l69 -389h84v-226q-160 0 -381 -22l-24 223l96 10q-33 170 -86 506zM610 449q8 6 68 10l-41 57l68 8q-18 18 -39 54l14 14l10 2l41 -53l27 65l43 -55q14 43 26 63h-2l23 -8l6 -10q-10 -20 -27 -57l72 8l-27 -66q39 8 64 13q8 -12 6 -23v-8 q-25 -6 -65 -12l43 -56l-72 -8q20 -20 41 -55q-6 -8 -25 -17q-14 18 -41 54l-26 -66l-45 55q-8 -29 -27 -61q-18 10 -29 16l29 58l-70 -9l27 66q-59 -8 -61 -8h-3q-8 16 -8 29zM672 500l30 -39l48 6l-29 37zM686 387l47 4l21 47l-49 -6zM743 522l29 -39l21 45l-31 39z M762 381l29 -39l20 45l-31 41zM799 471l51 8l18 43l-49 -4zM803 444l31 -38l49 6l-31 37z" />
<glyph unicode="g" horiz-adv-x="995" d="M-63 -176q0 299 311 414q-254 88 -254 331q0 352 477 352q18 0 37 -1l2 20q-37 -10 -72 -10q-74 0 -120 46t-46 128q0 104 66 147q53 35 164 35q119 0 180 -108q51 -92 51 -230q0 -82 -18 -149q106 -101 116 -242q203 -104 203 -260q0 -111 -108 -182q121 -141 121 -324 q0 -184 -189 -293q-162 -94 -358 -94q-213 0 -375 102q-188 119 -188 318zM162 -176q0 -96 127 -152q100 -43 211 -43q86 0 192 41q129 49 129 121q0 61 -49 152q-55 100 -110 100h-103v29q-156 -2 -258 -49q-139 -63 -139 -199zM221 569q0 -137 221 -137q70 0 107 31 q24 22 59 94q-10 59 -41 74q-16 10 -84 10h-37v55q-41 4 -59 4q-166 0 -166 -131zM702 293l25 -2v-21q82 2 82 27q0 27 -49 49q-25 -28 -58 -53zM741 1323q2 10 9 18l38 -8l-8 41l41 -6l-10 35q6 6 16 8l7 -2q2 -14 6 -35l34 33l9 -39q18 20 30 31l9 -2l4 -8 q-10 -14 -31 -33l43 -6l-33 -35q16 0 41 -6q-4 -10 -8 -19q-14 2 -39 6l8 -41l-43 9q6 -16 10 -37q0 -8 -20 -8q-4 12 -8 38l-33 -32l-8 39l-31 -31q-10 4 -14 10q12 14 31 33l-41 8l32 33q-16 0 -41 6zM774 1292l29 -6l22 23l-28 6zM797 1360l6 -29l28 -4l-6 27zM815 1276 l6 -29l23 23l-6 28zM844 1360l6 -27l22 25l-6 26zM856 1305l6 -29l29 -4l-6 28zM860 1321l31 -4l22 22l-28 4z" />
<glyph unicode="h" horiz-adv-x="897" d="M-117 82l111 37v481l-47 35l47 59q-1 46 -1 100q0 242 15 644l-98 12l29 223q47 -8 139 -18l145 86l125 -187l-112 -75q-8 -102 -9 -222v-272q80 57 183 57q174 0 252 -122q61 -94 71 -277q2 -150 4 -299l6 -217l164 -12l-10 -226q-80 8 -238 19q-53 -27 -122 -82 l-140 176q41 35 125 94q-8 53 -8 115q0 55 9 165.5t9 166.5q0 274 -122 274q-66 0 -191 -192v-512q39 -18 107 -41q-25 -72 -72 -215q-104 33 -152 61l-143 -49zM301 1217q2 -16 12 -17q4 0 60 6l-15 -39l66 7q-14 -33 -14 -35q0 -6 24 -6q2 0 8 2q4 12 11 32l51 -30l12 39 q31 -20 49 -31q14 6 21 10q-18 12 -49 31l63 8l-49 31q25 0 61 6l-4 12l-6 4l-61 -6l14 39l-66 -6l17 33q-13 8 -25 8q-2 0 -6 -2q-6 -12 -12 -33l-53 31l-15 -39q-27 20 -45 31q-14 -4 -20 -11q16 -12 47 -30l-66 -7l51 -32q-27 0 -61 -6zM348 1247l45 4l37 -22l-45 -4z M383 1182l10 26l45 6l-10 -28zM412 1264l10 24l35 -22l-8 -27zM455 1180l10 28l35 -22l-8 -27zM475 1235l10 27l43 4l-8 -27zM483 1219l45 4l35 -23l-45 -4z" />
<glyph unicode="i" horiz-adv-x="598" d="M-154 1292l17 51l59 -8l-26 45l57 2l35 -57l71 -10l-20 45l-90 14l4 49l57 -10l-22 43l55 17l23 -50l38 39l41 -30l-55 -56l23 -49l47 41l-23 62l43 26l21 -49l43 37l53 -29l-41 -35l55 -4l-16 -47l-90 8l-43 -37l71 -10l62 49l49 -26l-39 -31l60 -6l-19 -53l-57 8 l24 -45h-55l-35 55l-73 10l22 -43l90 -16l-4 -47l-59 10l22 -45l-55 -14l-23 47l-39 -39l-38 31l55 55l-25 49l-45 -41l23 -61l-45 -25l-21 47l-41 -37l-53 29l41 35l-57 4l18 47l90 -8l43 39l-72 8l-63 -47l-49 24l41 31zM-57 799l63 217q113 -39 154 -39q20 0 55 12l23 68 l30 -13l33 48l184 -131q-127 -195 -127 -406q0 -100 23 -401h100v-226h-288q-23 0 -127 6l12 226l78 -4q-23 289 -23 399q0 100 19 197q-49 2 -209 47z" />
<glyph unicode="j" horiz-adv-x="688" d="M-227 20q0 170 98 267l-33 59l197 111q68 -123 194 -248l-159 -160l-58 57q-14 -31 -14 -86q0 -74 35 -124q41 -57 110 -58q96 0 152 127q43 100 43 211q0 115 -57 287q-78 229 -88 282l-54 -2h-4q-54 0 -219 48l45 219q45 -14 88 -27q47 -14 82 -14h8l39 2v30h60l51 76 l186 -125l-69 -104q8 -106 86 -334q71 -213 71 -338q0 -209 -104 -373q-119 -190 -316 -190q-166 0 -270 123q-100 117 -100 284zM-135 1266l65 53q-57 10 -57 35q0 49 33 49q12 0 57 -10l-20 75l86 -18q-12 39 -13 45q0 31 54 31q25 0 36 -58l70 58l19 -74q27 27 51 41 q49 -16 49 -41q0 -16 -39 -49l86 -19l-66 -57q57 -10 58 -33q0 -16 -11.5 -34.5t-25.5 -18.5q-6 0 -53 12l18 -75l-86 18q10 -35 10 -45q0 -33 -57 -33q-23 0 -33 58l-65 -58l-19 78q-43 -37 -57 -37q-10 0 -27.5 14.5t-17.5 24.5q0 16 41 47zM-55 1284l75 -16l58 49l-74 16 zM-6 1421l16 -67l76 -17l-16 68zM37 1253l16 -67l60 49l-19 70zM94 1411l17 -68l59 54l-16 63zM119 1311l16 -70l78 -16l-16 67zM125 1329l78 -16l59 51l-76 14z" />
<glyph unicode="k" horiz-adv-x="1089" d="M-6 1452v225q29 0 108 -4q70 -4 111 -4q55 0 223 53l66 -215l-150 -45l32 -973q252 174 372 361l-138 72l109 198q90 -49 113 -61q66 -33 121 -43q66 29 135 53l71 -215l-186 -76v6q-115 -209 -326 -374l88 -158l123 84l127 -184q-70 -55 -139 -109q-94 -66 -158 -66 q-66 0 -149 140q-31 55 -98 200l2 -16l-60 -76v-100q53 -16 168 -68l-90 -207q-113 51 -201 66q-70 12 -209 12v226h107q0 215 -19.5 649t-19.5 649h-133zM518 1477q2 8 10 24l62 -10l-15 55l66 -10q-8 23 -16 49q-1 10 24 10q2 0 6 -2q6 -18 15 -49l51 45l14 -53 q29 29 47 43q8 -2 21 -14q-16 -18 -47 -45l65 -9l-51 -45q25 0 61 -10q0 -25 -12 -24q-4 0 -59 10l14 -56l-67 11q8 -23 16 -49q0 -10 -31 -11q-6 16 -12 52l-53 -46l-13 56q-16 -16 -47 -43q-16 6 -22 14q18 18 49 43l-66 10l52 43q-25 2 -62 11zM567 1436l43 -9l37 31 l-45 6zM600 1526l10 -37l45 -8l-10 39zM629 1413l10 -39l37 31l-10 39zM674 1528l10 -39l35 33l-8 37zM692 1452l10 -39l48 -6l-11 39zM700 1475l48 -7l34 31l-45 6z" />
<glyph unicode="l" horiz-adv-x="565" d="M-27 1434l27 223q100 -14 125 -15l68 9l6 49l71 -10l58 59l159 -160l-88 -88q-66 -481 -65 -641q0 -344 74 -747q61 -14 198 -103l-121 -190q-82 53 -213 78q-113 16 -225 32l49 222l80 -19q-67 393 -67 717v10q0 199 51 559q-66 0 -187 15zM430 483l27 4l-21 37l23 13 l28 -43l31 8l-24 39l-39 -4l-9 36l29 5l-20 32l18 27l21 -35l6 41l20 -18l-8 -60l25 -41l8 47l-25 50l12 32l21 -39l6 41l27 -12l-8 -43l26 10l2 -39l-37 -12l-10 -51l33 8l14 57l25 -10l-10 -39l28 6l-22 -47l20 -34l-22 -15l-27 43l-33 -6l25 -41l39 6l8 -37l-29 -4 l21 -35l-19 -24l-20 35l-6 -41l-23 18q4 20 10 58l-22 40l-10 -45l24 -49l-12 -33l-19 37l-8 -41l-26 15l8 43l-27 -11l-2 37l37 15l10 49l-32 -8l-15 -56l-24 11l10 39l-29 -9zM444 496q0 -12 11 -13q10 0 10 9q0 14 -10 14h-4q-6 0 -7 -10z" />
<glyph unicode="m" horiz-adv-x="1544" d="M-125 977l43 221q147 -31 188 -31q37 0 205 41l41 -164q90 68 193 68q123 0 188 -127q98 94 250 94q117 0 207 -200q57 -129 122.5 -406.5t90.5 -329.5l106 2h70v-225l-137 4l-62 -18q-41 -45 -75 -96l-185 129l78 110q-59 131 -126.5 404.5t-123.5 400.5 q-63 -10 -106 -100q-37 -78 -37 -150q0 -94 29 -266q29 -180 30 -266l105 -4l-11 -226l-413 17l10 225l84 -2q-8 195 -94 805q-139 0 -205 -281q-41 -179 -41 -362v-33l2 -61l133 -41l-65 -218q-102 35 -185 54q-53 -27 -114 -80l-148 172q70 63 72 65q43 35 82 50v12v14 q0 44 10 117q12 86 12 127q0 111 -24 264q-23 131 -45 262zM1122 1196q27 0 68 -2l-45 53l69 -2q-20 18 -43 51q8 6 15 11h10q18 -18 43 -50l25 52l47 -52q12 33 22 50q27 -1 29 -19q-10 -16 -25 -45l74 -2l-25 -51q63 2 58 2h10q4 -8 4 -27q-27 -2 -67 -2l47 -51h-72 q20 -18 43 -51q-10 -6 -23 -10q-18 16 -45 51l-24 -53l-47 53q-14 -31 -25 -47q-23 6 -28 16q8 16 24 45h-72l27 53l-59 -2q-14 0 -15 29zM1182 1231l32 -37l48 -2l-31 37zM1200 1133h49l19 36h-49zM1253 1241l31 -37l19 35l-33 37zM1278 1118l33 -37l16 37l-31 37z M1313 1192h51l16 33l-51 2zM1317 1167l33 -37l49 -2l-33 37z" />
<glyph unicode="n" horiz-adv-x="1034" d="M-123 1014l41 223q147 -35 172 -35q43 0 92 29q41 29 82 55l121 -188l-117 -74l-6 -113q160 225 336 226q201 0 254 -289q20 -106 20 -442q0 -106 21 -183l106 33l70 -213q-143 -47 -158 -55q-41 -25 -110 -127l-187 125l82 116q-43 115 -43 291q0 37 2 113t2 112 q0 205 -63 291q-86 -53 -188 -157q-84 -90 -168 -181l-5 -256v-10q0 -98 37 -176l148 -41l-60 -217l-149 41l-135 -72l-103 203l76 37q-43 121 -43 297q0 53 10 233l-32 37l36 35l23 301zM248 285q20 4 51 8l-43 43l53 8l-37 43q8 12 17 14q14 -14 39 -41l10 52l43 -43 q4 14 10 45l6 4q20 0 21 -10q0 -3 -12 -48l53 9l-13 -52q18 4 52 9q8 -8 8 -23q-20 -6 -51 -8l41 -43l-52 -10q16 -12 39 -41q-4 -8 -18 -13l-37 39l-12 -51l-43 41q-4 -31 -13 -47q-23 0 -22 10q0 2 12 45l-55 -8l12 53q-31 -6 -49 -10q-6 8 -10 25zM289 326l28 -31l39 6 l-30 29zM315 238l39 4l8 39l-38 -9zM340 346l31 -31l6 37l-29 29zM377 236l29 -31l8 37l-29 30zM393 307l37 6l8 37l-37 -6zM399 287l31 -31l35 6l-29 29z" />
<glyph unicode="o" horiz-adv-x="862" d="M-88 352q0 772 553 848l12 -84q332 -227 332 -743q0 -209 -137 -355.5t-344 -146.5q-188 0 -308 149q-109 137 -108 332zM137 352q0 -98 45 -172q53 -84 146 -84q117 0 186.5 80t69.5 197q0 412 -256 571q-190 -94 -191 -592zM268 412l6 22l33 -14l-10 39l29 14l26 -76 l35 -14l-6 51l-49 49l16 33l27 -20l-4 43l20 6l4 -43l19 35l22 -27l-37 -72l7 -47l28 31l10 84l31 6l-2 -45l25 31l14 -23l-29 -31l35 -4l-8 -34h-64l-30 -35l35 -17l61 35l12 -31l-30 -22l32 -14l-6 -23l-31 14l11 -39l-29 -14l-29 76l-32 14l4 -51l49 -49l-14 -33l-29 21 l6 -43l-20 -5l-5 41l-20 -34l-23 24l37 74l-4 47l-29 -31l-12 -84l-31 -4l5 43l-27 -30l-12 22l26 29l-35 6l9 35h63l31 34l-35 17l-59 -37l-15 33l31 22z" />
<glyph unicode="p" horiz-adv-x="899" d="M-154 1030q123 8 174 37q39 20 136 117l157 -160l-24 -25q84 39 174 39q188 0 303 -170q100 -150 100 -348q0 -158 -96 -287q-106 -141 -258 -141q-190 0 -297 70l70 -430l145 -49l-76 -211l-141 45q-2 1 -5 1q-28 0 -126 -75l-125 186l106 70q-6 68 -51 321 q-35 199 -35 324q0 63 21.5 188t21.5 189q0 53 -12 98l-145 -14zM219 522q63 -123 109 -157q59 -47 184 -48q55 0 94 76q35 68 35 127q0 102 -39 187q-49 106 -139 106q-102 0 -219 -139q-2 -27 -25 -152zM662 1397q4 -10 2 -25q27 6 69 21l-33 -70l72 23q-20 -39 -29 -68 l25 -4q14 23 33 67l41 -47l32 72q12 -16 37 -45q20 10 29 29l-39 39l72 22l-41 47q25 6 67 23q2 12 2 28h-10q-4 0 -59 -20l31 67l-72 -22q20 39 31 68q-16 4 -25 4h-4l-31 -68l-39 47l-32 -69q-23 29 -37 45q-21 -9 -25 -27q14 -16 37 -41l-74 -25l39 -47q-45 -12 -69 -24z M727 1460l51 19l27 -33l-51 -16zM735 1354l23 47l51 18l-25 -49zM803 1499l22 49l27 -32l-21 -50zM811 1364l23 49l28 -33l-22 -49zM856 1462l25 49l47 17l-21 -49zM858 1436l51 16l29 -33l-51 -16z" />
<glyph unicode="q" horiz-adv-x="1089" d="M-178 668q0 176 116.5 302t290.5 126q109 0 199 -37l111 155q115 -88 153 -88q31 0 154 54l88 -207q-61 -31 -182 -68q-25 -297 -25 -608l-22 45q29 -74 32 -231q2 -119 2 -240q111 78 330 109l33 -222q-168 -25 -285 -120q-45 -37 -213 -228q-92 377 -100 684 q-71 -26 -161 -26h-7q-233 0 -379 188q-135 172 -135 412zM37 1329l74 35q-25 2 -72 10q10 14 22 23l66 -11l-2 48l76 -13l-4 41l4 6q10 4 37 5q2 -18 2 -46l73 35l2 -49q43 23 70 35q12 -10 18 -16q-23 -12 -69 -33l76 -13l-74 -36q25 -2 70 -13q-8 -23 -27 -22q2 0 -62 12 l2 -47l-75 12q4 -14 6 -41l-4 -6q-20 -4 -29 -4h-8l-2 45l-74 -35l-2 49q-43 -25 -70 -36l-16 12v4q23 12 68 35zM47 668q0 -145 70 -252q80 -123 219 -123q102 0 166 59q0 51 4 155.5t4 158.5q0 2 -8 18q-87 186 -273 186q-82 0 -132 -59t-50 -143zM84 1335l53 -8l51 25 l-55 8zM152 1415l2 -35l51 -10l-2 35zM156 1278l51 25v34l-51 -26v-33zM238 1411l2 -35l53 27l-2 33zM242 1341l2 -32l51 -11l-2 35zM258 1362l53 -8l51 24l-51 8z" />
<glyph unicode="r" horiz-adv-x="700" d="M-100 844l65 215q117 -37 150 -37q43 0 170 49l75 -192q70 28 147 28h5q86 0 158.5 -63.5t72.5 -147.5q0 -90 -84 -174q-8 -8 -157 -125q-42 167 -42 257q0 12 1 22q-98 -27 -225 -203v-80v2q1 0 18 -223l160 -41l-54 -219l-135 35l-18 -29l-25 16l-67 -69l-160 160 l74 75l2 82v12q1 36 -9 94q-12 70 -12 105v125l25 -49q-35 78 -35 190q0 53 10 150z" />
<glyph unicode="s" horiz-adv-x="970" d="M-80 565q0 172 138.5 302t310.5 130q360 0 497 -295h123v-225q-207 0 -346 -57q182 -74 182 -281q0 -119 -108 -192q-98 -68 -221 -68q-207 0 -332 139l-80 -36l-92 204q102 47 184 93q-256 59 -256 286zM145 565q0 -55 181 -90q26 -4 231 -29l-65 154q51 23 145 59 q-82 113 -268 113q-78 0 -151 -65.5t-73 -141.5zM340 252l57 -117l-18 -8q39 -23 117 -23q104 0 104 35q0 66 -104 92q-29 9 -156 21zM653 1092l31 10l-25 16l13 12l33 -18l36 14l-32 23l-37 -12l-8 16l26 8l-24 19l14 16l25 -18l2 30l18 -8l-2 -37l29 -20l4 37l-29 24 l10 17l23 -19l4 29l20 -2l-6 -29l27 12l6 -18l-35 -16l-6 -37l35 14l8 35l18 4l-4 -29l27 13l10 -19l-28 -12l22 -17l-12 -12l-33 19l-37 -15l33 -22l37 12l8 -16l-27 -9l25 -18l-14 -16l-25 18l-2 -31l-18 9l2 36l-29 21l-4 -37l29 -25l-11 -14l-22 19l-4 -31l-21 2l6 31 l-26 -15l-6 19l34 16l7 37l-35 -14l-8 -35l-19 -4l4 28l-26 -12z" />
<glyph unicode="t" horiz-adv-x="800" d="M-141 756v225q32 1 61 1q71 0 117 -7q12 104 39 201l-88 26l65 215l103 -31l4 15l47 -21q55 37 121 88l139 -178q-53 -41 -158 -110q-31 -84 -45 -201l211 53q-35 -221 -35 -262l33 -108l-215 -66l-10 33v-252q0 -256 141 -256q96 0 166 82q66 76 66 174q-1 0 -7 57 l-28 -28l-158 159q84 76 244 248l180 -137l-64 -80q57 -106 58 -219q0 -193 -131 -334q-135 -147 -326 -147q-221 0 -309 235q-59 160 -60 455q0 20 3 164q-28 7 -100 7q-28 0 -64 -1z" />
<glyph unicode="u" horiz-adv-x="966" d="M-121 950l113 195q86 -57 114 -58q39 0 207 54l66 -217l-129 -39l-4 -258q-1 -22 -1 -43q0 -138 23 -252q43 -211 150 -211q151 0 151 216q-1 64 -27 190q-25 117 -24 182v10l-100 18l41 221q55 -10 164 -34l178 51l59 -219l-117 -33v-61q0 -43 21.5 -126t21.5 -126 q0 -201 -81 -342q-100 -172 -287 -172q-395 0 -395 804q0 27 2 172q-35 12 -146 78z" />
<glyph unicode="v" horiz-adv-x="753" d="M-72 862v225l109 -2h14q53 0 99 13l51 61l170 -147q-35 -47 -113 -119q41 -123 51 -164q27 -92 35 -168q23 49 86 154q-20 39 -20 100q0 68 18 133q186 -49 381 -49v-225h-141q-70 -117 -201 -453q-113 -293 -227 -438q-35 143 -95 543q-51 342 -114 536h-103zM106 1401 q0 12 7 18q16 -2 41 -6l-11 39l43 -6q-4 12 -10 37q7 6 17 8l4 -2l8 -37l33 33l10 -39l28 33q10 -6 15 -13q-12 -14 -31 -32l43 -7l-33 -32q16 -2 39 -9q-2 -10 -8 -18q-12 2 -39 8l10 -41l-43 6q10 -35 11 -36q0 -6 -21 -7q-4 12 -8 37l-33 -32l-10 40q-8 -12 -31 -30 q-8 4 -12 10q10 12 31 31l-41 8l32 33q-18 0 -41 6zM137 1370l29 -4l24 23l-28 4zM160 1438l6 -29l31 -4l-7 29zM178 1354l6 -29l25 23l-6 30zM207 1440l6 -29l25 25l-7 26zM219 1384l6 -30l31 -4l-6 28zM225 1401l29 -4l25 22l-29 4zM608 262l27 25l-25 8l17 29 q12 -4 35 -13l32 29l-28 12l-37 -30l-17 16l27 24l-25 11l17 35l24 -13v35l25 4v-51l29 -12l2 43l-31 18l10 31l23 -14l2 38l28 5l-2 -35l27 28l4 -30l-35 -35l-2 -41l31 29l6 51l25 10l-4 -35l26 25l12 -25l-26 -24l24 -9l-16 -28q-12 4 -35 12l-33 -29l29 -12l37 31 l16 -17l-26 -24l22 -10l-12 -35l-27 12v-33l-24 -4v49l-29 13l-4 -43l35 -19l-12 -31l-23 13l-2 -37l-29 -4l2 35l-26 -27l-4 29l34 34l3 41l-31 -28l-6 -51l-25 -11l4 35l-26 -24z" />
<glyph unicode="w" horiz-adv-x="1052" d="M-168 1214q2 10 8 19l54 -6l-13 39l58 -9q-10 25 -15 37q11 6 21 6q2 0 6 -2l10 -34l47 32l10 -39q27 20 41 31q8 -2 19 -10q-14 -12 -41 -31l55 -8l-43 -31q23 -2 53 -8q-2 -16 -10 -16q-4 0 -51 6l10 -39l-55 6l12 -35q-12 -4 -26 -8q-6 12 -11 37l-45 -33l-12 39 q-27 -18 -41 -29q-10 4 -18 11q16 12 43 30l-56 7l43 32q-23 0 -53 6zM-129 829v226q127 0 180 8q80 10 172 51l90 -207l-104 -43l98 -387q23 100 58 166l-37 12l65 215q67 -28 178 -63l-45 115q195 80 324 178l137 -178l-98 -74q16 -72 16 -158q0 -225 -90 -520 q-84 -250 -170 -502l-168 479q-27 -96 -108 -190q-47 -53 -162 -154q-45 297 -221 1026h-115zM-127 1184l39 -4l31 22l-39 4zM-96 1251l8 -28l39 -4l-8 26zM-72 1169l9 -28l30 22l-8 29zM-35 1251l8 -26l33 22l-8 27zM-18 1198l10 -29l39 -4l-8 27zM-10 1214l39 -4l30 21 l-36 4zM606 578q6 -82 31 -175q45 168 45 281q0 31 -2 57l-2 -2l-23 -168z" />
<glyph unicode="x" horiz-adv-x="1015" d="M-145 12l18 224q57 -2 162 -17q66 106 252 316q-113 219 -254 370l-119 -10l-18 223q141 12 323 74l72 -215l-15 -4q88 -106 166 -250q59 82 95 160l-103 73l129 185q109 -78 133 -88q51 -23 162 -23v-225h-113q-59 -141 -190 -303q55 -92 109 -185q63 -109 86 -194 l133 -21l-35 -223q-99 16 -254 16q-81 0 -176 -4l-10 226l102 4q-39 66 -113 194q-117 -135 -176 -227l64 -119l-201 -104q-39 72 -80 123q-66 18 -149 24zM756 459q2 10 8 18l39 -8l-8 41l41 -6l-11 35q7 6 17 8l6 -2q2 -14 6 -35l35 33l8 -39q18 20 31 31l8 -3l4 -8 q-10 -14 -29 -32l41 -9l-32 -32q16 0 41 -7q-4 -10 -9 -18q-14 2 -39 6l9 -41l-43 8q6 -16 10 -37q0 -8 -21 -8q-4 12 -8 39l-33 -35l-8 41l-31 -30q-10 4 -14 10q12 14 31 33l-41 8l33 33q-16 0 -41 6zM788 428l29 -6l23 22l-29 5zM811 496l6 -29l29 -4l-6 26zM829 412 l7 -29l22 23l-6 28zM858 496l6 -27l23 25l-6 26zM870 440l7 -28l28 -4l-6 28zM874 457l31 -4l23 22l-29 4z" />
<glyph unicode="y" horiz-adv-x="1130" d="M-78 229l152 168q70 -68 86 -80q53 -41 106 -41q18 0 172 23l33 -223q-169 -25 -225 -25h-8q-10 -41 -11 -88q0 -59 48.5 -118.5t105.5 -59.5q125 0 217 180q18 35 113 291q-205 215 -207 215q-150 139 -244 139q-39 0 -180 -49l-51 219q115 27 153 51q27 18 115 115 l166 -153l-8 -7q88 -43 180 -131q10 -10 153 -161q12 53 21.5 159.5t21.5 157.5l-126 82l122 188q88 -61 195 -84q104 -14 209 -30l-27 -224q-57 4 -155 23q-10 -49 -14.5 -148.5t-14.5 -148.5q-63 -322 -201 -567q-188 -342 -438 -342q-152 0 -265.5 125t-113.5 278 q0 102 29 172zM461 977q2 4 4 14l6 4l31 -16l-4 47l37 -18q-4 27 -7 43q2 4 11 4h6q6 -16 8 -43l31 26l6 -45q10 12 31 27q6 -8 8 -16q-10 -10 -29 -27l37 -19l-33 -30q25 -10 35 -17q-4 -12 -8 -18q-12 6 -33 18l4 -47l-37 19l6 -39q2 -8 -14 -8h-4q-2 16 -4 43l-33 -27 l-4 45q-12 -12 -31 -27q-8 8 -10 17l31 26l-37 19l31 29q-25 10 -35 18v-2zM485 936l27 -12l23 18l-27 14zM512 1006l2 -33l27 -12l-4 32zM522 907l2 -30l23 18l-4 33zM553 995l4 -32l21 20l-3 33zM559 930l4 -33l27 -12l-4 33zM565 948l27 -14l22 20l-26 15z" />
<glyph unicode="z" horiz-adv-x="909" d="M-80 885v112h225v-53q129 20 338 29q270 8 338 14q-61 -201 -223 -422q-37 -51 -303 -375q106 36 198 36q14 0 27 -1q39 33 162 111l121 -191q-47 -27 -125 -82v-69h-25v-82h-225v84q-18 -4 -156 -47q-94 -29 -157 -29q-111 0 -111 135t178 363q139 162 279 321 q-186 -2 -289 -18l18 -57l-215 -68q-55 176 -55 289zM541 1270l6 26l35 -6l-13 31l23 6l14 -43l45 -6l-14 43l-41 10l2 23l33 -8l-10 32l24 8l8 -32l25 28l10 -20l-26 -35l10 -41l30 35l-8 43l21 10l6 -33l24 29l17 -16l-25 -27l33 -4l-6 -20l-45 4l-31 -35l41 -6l33 30 l20 -8l-26 -26l32 -7l-4 -24l-34 6l12 -31l-23 -6l-14 41l-45 8l12 -43l43 -10l-4 -22l-31 8l11 -33l-25 -8l-10 33l-23 -29l-10 18l27 37l-11 41l-32 -35l10 -43l-21 -10l-6 33l-24 -29l-19 17l27 26l-35 4l8 21l45 -4l31 34l-41 7l-33 -31l-20 8l24 27z" />
<glyph unicode="{" horiz-adv-x="649" d="M-31 575l174 142q0 70 -69.5 230.5t-69.5 256.5q0 131 64 219q53 70 161 131q102 49 205 101l92 -185q-182 -80 -202 -92q-115 -72 -115 -174q0 -86 69.5 -242.5t69.5 -244.5q0 -90 -84 -170q51 -66 51 -141q0 -86 -53 -248t-53 -248q0 -96 63 -133q49 -27 154 -27l59 43 l127 -162q-108 -86 -186 -86q-422 0 -422 365q0 86 53.5 249t53.5 247z" />
<glyph unicode="|" horiz-adv-x="854" d="M410 1245q0 96 20 344l205 -16q-20 -240 -21 -328q0 -147 50 -684q51 -559 77 -651l-192 -68q-37 109 -37 246q0 33 2 103.5t2 109.5q0 160 -53 472t-53 472z" />
<glyph unicode="}" horiz-adv-x="835" d="M207 1454l49 201q150 -39 274 -127q158 -113 158 -242q0 -90 -63.5 -255t-63.5 -255q0 -129 70 -184q41 -33 186 -78q-195 -182 -199 -184q-139 -143 -139 -207q0 -45 31 -128t31 -128q0 -90 -101 -121q-25 -8 -176 -25l-31 203l89 10q-49 129 -50 179q0 162 195 346 q-111 137 -111 317q0 90 63.5 256t63.5 254q-127 131 -276 168z" />
<glyph unicode="~" horiz-adv-x="704" d="M31 195l96 55l-92 45l24 33l113 -54l135 76l-135 76l-113 -53l-24 35l92 43l-96 57l28 41l95 -55l-4 108l38 -14l11 -121l127 -78v154l-105 69l17 39l88 -59l-2 115h47l-2 -115l90 59l16 -39l-106 -69v-154l131 78l8 121l39 14l-4 -108l94 55l29 -41l-97 -57l93 -43 l-25 -35l-113 53l-137 -76l137 -76l113 54l25 -33l-93 -45l97 -55l-29 -43l-94 55l4 -107l-39 13l-8 120l-131 78v-153l106 -70l-16 -37l-90 58l2 -113h-47l2 113l-88 -58l-17 37l105 70v153l-127 -78l-11 -120l-38 -13l4 107l-95 -55z" />
<glyph unicode="&#xa1;" horiz-adv-x="704" d="M31 195l96 55l-92 45l24 33l113 -54l135 76l-135 76l-113 -53l-24 35l92 43l-96 57l28 41l95 -55l-4 108l38 -14l11 -121l127 -78v154l-105 69l17 39l88 -59l-2 115h47l-2 -115l90 59l16 -39l-106 -69v-154l131 78l8 121l39 14l-4 -108l94 55l29 -41l-97 -57l93 -43 l-25 -35l-113 53l-137 -76l137 -76l113 54l25 -33l-93 -45l97 -55l-29 -43l-94 55l4 -107l-39 13l-8 120l-131 78v-153l106 -70l-16 -37l-90 58l2 -113h-47l2 113l-88 -58l-17 37l105 70v153l-127 -78l-11 -120l-38 -13l4 107l-95 -55z" />
<glyph unicode="&#xa2;" horiz-adv-x="641" d="M35 199q14 12 139 73l-131 78l131 76q-59 29 -139 76l24 41l138 -80v153l135 -75l-10 153l4 6q31 0 49 -4l-4 -155l137 75v-153q43 31 129 88l29 -45q-31 -23 -136 -80l134 -76l-134 -78q51 -20 140 -73l-29 -43l-133 80v-156l-137 78l8 -154l-6 -4l-51 4v33q0 -4 10 121 l-135 -78v156q-43 -31 -134 -80zM84 350l113 -65l114 65l-114 64zM217 115l115 65v137l-115 -67v-135zM217 451l115 -68v133l-115 68v-133zM373 180l116 -65v135l-116 67v-137zM373 383l116 72v129l-116 -68v-133zM389 350l119 -65l115 65l-115 64z" />
<glyph unicode="&#xa3;" d="M35 272l18 50l164 -35l107 63l-107 66l-164 -37l-18 51l96 33l-92 51l14 25l92 -54l-22 99l55 10l47 -160l111 -61v125l-111 123l31 45l80 -72l-4 108h35l-5 -108l80 72l31 -45l-111 -123v-125l111 61l49 160l53 -10l-22 -99l92 54l14 -25l-90 -51l95 -33l-19 -51 l-162 37l-108 -66l108 -63l162 35l19 -50l-95 -34l90 -52l-14 -22l-92 51l22 -98l-53 -11l-49 160l-111 62v-125l111 -123l-31 -45l-80 71l5 -106h-35l4 106l-80 -71l-31 45l111 123v125l-111 -62l-47 -160l-55 11l22 98l-92 -51l-14 22l92 52z" />
<glyph unicode="&#xa5;" d="M35 272l18 50l164 -35l107 63l-107 66l-164 -37l-18 51l96 33l-92 51l14 25l92 -54l-22 99l55 10l47 -160l111 -61v125l-111 123l31 45l80 -72l-4 108h35l-5 -108l80 72l31 -45l-111 -123v-125l111 61l49 160l53 -10l-22 -99l92 54l14 -25l-90 -51l95 -33l-19 -51 l-162 37l-108 -66l108 -63l162 35l19 -50l-95 -34l90 -52l-14 -22l-92 51l22 -98l-53 -11l-49 160l-111 62v-125l111 -123l-31 -45l-80 71l5 -106h-35l4 106l-80 -71l-31 45l111 123v125l-111 -62l-47 -160l-55 11l22 98l-92 -51l-14 22l92 52z" />
<glyph unicode="&#xa7;" horiz-adv-x="700" d="M37 193l100 57l-96 47l18 27l113 -56l143 82l-143 82l-113 -53l-18 27l96 45l-100 57l22 37l99 -58l-4 109l30 -10l11 -121l135 -82v162l-105 69l15 31l90 -59l-2 116h39l-2 -116l92 59l12 -31l-104 -69v-162l139 82l8 121l31 10l-4 -109l96 58l24 -37l-100 -57l96 -45 l-20 -27l-111 53l-145 -82l145 -82l111 56l20 -27l-96 -47l100 -57l-24 -37l-96 57l4 -107l-31 11l-8 119l-139 81v-161l104 -68l-12 -31l-92 60l2 -117h-39l2 117l-90 -60l-15 31l105 68v161l-135 -81l-11 -119l-30 -11l4 107l-99 -57z" />
<glyph unicode="&#xa8;" horiz-adv-x="700" d="M37 193l100 57l-96 47l18 27l113 -56l143 82l-143 82l-113 -53l-18 27l96 45l-100 57l22 37l99 -58l-4 109l30 -10l11 -121l135 -82v162l-105 69l15 31l90 -59l-2 116h39l-2 -116l92 59l12 -31l-104 -69v-162l139 82l8 121l31 10l-4 -109l96 58l24 -37l-100 -57l96 -45 l-20 -27l-111 53l-145 -82l145 -82l111 56l20 -27l-96 -47l100 -57l-24 -37l-96 57l4 -107l-31 11l-8 119l-139 81v-161l104 -68l-12 -31l-92 60l2 -117h-39l2 117l-90 -60l-15 31l105 68v161l-135 -81l-11 -119l-30 -11l4 107l-99 -57z" />
<glyph unicode="&#xa9;" horiz-adv-x="712" d="M31 270l20 58l164 -37l100 59l-100 62l-164 -37l-20 57l90 33l-88 49l20 29l86 -49l-22 94l63 10l49 -160l103 -57v115l-111 125l35 51l76 -70l-4 105h43l-4 -105l75 70l37 -51l-112 -125v-115l104 57l47 160l64 -10l-23 -94l86 49l21 -29l-86 -49l90 -33l-23 -57 l-164 37l-100 -62l100 -59l164 37l23 -58l-90 -32l86 -50l-21 -30l-86 49l23 -94l-64 -11l-47 162l-104 55v-114l112 -125l-37 -51l-75 69l4 -102h-43l4 102l-76 -69l-35 51l111 125v114l-103 -55l-49 -162l-63 11l22 94l-86 -49l-20 30l88 50z" />
<glyph unicode="&#xaa;" horiz-adv-x="714" d="M27 203l82 45l-78 39l-2 16q0 23 34 33l109 -51l117 65l-117 66l-109 -51l-12 4q-16 18 -22 37l2 10l78 37l-82 47v6q0 41 39 51q20 -6 77 -47l-4 90l23 8q23 -6 35 -18l8 -117l112 -67v131l-102 69l-2 10l10 27l19 14l75 -49l-2 99l9 8h47l10 -8l-2 -99l74 49 q29 -8 28 -30l-2 -21l-100 -69v-131l113 67l8 117l6 6l35 12l14 -8l-2 -90l80 47l12 -2l27 -49l-2 -6l-82 -47l78 -37v-19q2 -20 -33 -32l-109 51l-118 -66l118 -65l109 51l12 -2q14 -20 23 -37l-2 -10l-78 -39l82 -45v-8q0 -41 -39 -52q-23 6 -78 47l2 -90l-23 -6 q-20 6 -32 19l-8 114l-113 68v-131l100 -68l4 -10l-10 -27l-20 -16l-74 49l2 -96l-10 -8h-47l-9 8l2 96l-75 -49q-29 10 -27 33v20l102 68v131l-112 -68l-8 -114l-7 -9l-34 -10l-17 6l4 90l-80 -47l-12 2q-25 31 -24 58zM43 190l18 -26q57 33 93 51q12 -16 4 -102l20 8 q10 111 27 131q4 4 117 67l14 -8v-153q-35 -27 -105 -72l11 -23l80 54l14 -8l-2 -105h28l-2 105l15 8l80 -54l8 23q-68 45 -103 72v153l15 8q109 -59 114 -65q18 -25 27 -133l21 -8l-5 92l15 10l86 -51l20 26l-90 52l2 16l82 41l-14 18l-105 -53q-51 25 -145 78v16 q94 53 145 78l105 -51l14 18l-82 39l-2 17l90 51l-18 27q-31 -18 -94 -52l-9 11l5 92l-21 -6q-8 -111 -27 -133q-6 -8 -114 -68l-15 8v154q35 29 103 73l-8 21l-80 -51l-15 8l2 102h-28l2 -102l-14 -8l-80 51l-11 -21q70 -45 105 -73v-154l-14 -8q-111 59 -117 68 q-16 20 -27 133l-20 6l4 -92l-8 -11q-37 18 -93 52l-18 -27l90 -51l-2 -17l-82 -39l12 -18l107 51q51 -25 143 -78v-16q-92 -53 -143 -78l-107 53l-14 -18l84 -41l2 -16z" />
<glyph unicode="&#xac;" horiz-adv-x="714" d="M27 199q20 18 129 75l-119 68l2 16l117 68q-35 16 -70 33q-47 20 -59 43q12 29 32 51q27 -10 129 -74v137l13 9l121 -68l-11 137l15 15q66 2 65 -47q0 -18 -5 -54.5t-5 -50.5l123 68l12 -9v-135q41 31 121 78q16 -12 39 -53q-31 -27 -127 -80l119 -68l2 -16l-119 -70 q35 -16 67 -32q47 -23 62 -41q-6 -11 -39 -54q-37 16 -125 74v-139l-12 -8l-123 69l8 -133l-14 -16q-27 0 -53 8l-15 31q0 20 6 58t9 52l-121 -69l-13 8v139q-53 -33 -125 -74q-20 27 -36 54zM45 197q8 -6 23 -31l125 78l12 -8v-140l123 70l12 -10q-10 -119 -10 -117l2 -31 l16 4l23 -4q-6 29 -9 150l13 8l125 -70v140l12 8q45 -25 127 -78q6 16 20 31l-133 67v17l119 69l-119 68v16l129 74q-8 18 -20 31q-31 -27 -123 -82l-12 6v139l-125 -70l-13 9l3 141l-35 10l10 -151l-12 -9l-123 70v-139l-12 -8l-132 77q-10 -8 -14 -28l131 -70v-16 l-117 -68l119 -69l-2 -17zM74 350q0 8 57 40t70 32q10 0 65.5 -33t55.5 -39q0 -8 -58.5 -41t-70.5 -33q-10 0 -64.5 35t-54.5 39zM100 350l97 -55l96 55l-96 53zM207 115v135l4 8q66 37 121 68q8 0 8 -9v-137q0 -4 -125 -74q-8 -4 -8 9zM207 451v133q0 12 8 8 q125 -70 125 -76v-133q0 -8 -8 -8q-72 39 -121 67zM225 131l97 55v115l-97 -57v-113zM225 455l97 -56v113l-97 55v-112zM362 180v137q0 8 9 9q68 -37 123 -68l4 -8v-135q0 -8 -9 -9q-96 51 -120 66zM362 383v133q0 6 127 76q8 4 9 -8v-129l-4 -9q-8 -3 -123 -71q-8 0 -9 8z M379 350q0 8 59.5 40t73.5 32q10 0 65.5 -33t55.5 -39t-58.5 -40t-70.5 -34q-10 0 -67.5 35t-57.5 39zM381 186l98 -55v113l-98 57v-115zM381 399l98 62v106l-98 -55v-113zM408 350l100 -55l96 55l-96 53z" />
<glyph unicode="&#xad;" horiz-adv-x="663" d="M84 530v205h453v-205h-453z" />
<glyph unicode="&#xae;" horiz-adv-x="714" d="M27 199q20 18 129 75l-119 68l2 16l117 68q-35 16 -70 33q-47 20 -59 43q12 29 32 51q27 -10 129 -74v137l13 9l121 -68l-11 137l15 15q66 2 65 -47q0 -18 -5 -54.5t-5 -50.5l123 68l12 -9v-135q41 31 121 78q16 -12 39 -53q-31 -27 -127 -80l119 -68l2 -16l-119 -70 q35 -16 67 -32q47 -23 62 -41q-6 -11 -39 -54q-37 16 -125 74v-139l-12 -8l-123 69l8 -133l-14 -16q-27 0 -53 8l-15 31q0 20 6 58t9 52l-121 -69l-13 8v139q-53 -33 -125 -74q-20 27 -36 54zM45 197q8 -6 23 -31l125 78l12 -8v-140l123 70l12 -10q-10 -119 -10 -117l2 -31 l16 4l23 -4q-6 29 -9 150l13 8l125 -70v140l12 8q45 -25 127 -78q6 16 20 31l-133 67v17l119 69l-119 68v16l129 74q-8 18 -20 31q-31 -27 -123 -82l-12 6v139l-125 -70l-13 9l3 141l-35 10l10 -151l-12 -9l-123 70v-139l-12 -8l-132 77q-10 -8 -14 -28l131 -70v-16 l-117 -68l119 -69l-2 -17zM74 350q0 8 57 40t70 32q10 0 65.5 -33t55.5 -39q0 -8 -58.5 -41t-70.5 -33q-10 0 -64.5 35t-54.5 39zM100 350l97 -55l96 55l-96 53zM207 115v135l4 8q66 37 121 68q8 0 8 -9v-137q0 -4 -125 -74q-8 -4 -8 9zM207 451v133q0 12 8 8 q125 -70 125 -76v-133q0 -8 -8 -8q-72 39 -121 67zM225 131l97 55v115l-97 -57v-113zM225 455l97 -56v113l-97 55v-112zM362 180v137q0 8 9 9q68 -37 123 -68l4 -8v-135q0 -8 -9 -9q-96 51 -120 66zM362 383v133q0 6 127 76q8 4 9 -8v-129l-4 -9q-8 -3 -123 -71q-8 0 -9 8z M379 350q0 8 59.5 40t73.5 32q10 0 65.5 -33t55.5 -39t-58.5 -40t-70.5 -34q-10 0 -67.5 35t-57.5 39zM381 186l98 -55v113l-98 57v-115zM381 399l98 62v106l-98 -55v-113zM408 350l100 -55l96 55l-96 53z" />
<glyph unicode="&#xb0;" horiz-adv-x="714" d="M27 203l82 45l-78 39l-2 16q0 23 34 33l109 -51l117 65l-117 66l-109 -51l-12 4q-16 18 -22 37l2 10l78 37l-82 47v6q0 41 39 51q20 -6 77 -47l-4 90l23 8q23 -6 35 -18l8 -117l112 -67v131l-102 69l-2 10l10 27l19 14l75 -49l-2 99l9 8h47l10 -8l-2 -99l74 49 q29 -8 28 -30l-2 -21l-100 -69v-131l113 67l8 117l6 6l35 12l14 -8l-2 -90l80 47l12 -2l27 -49l-2 -6l-82 -47l78 -37v-19q2 -20 -33 -32l-109 51l-118 -66l118 -65l109 51l12 -2q14 -20 23 -37l-2 -10l-78 -39l82 -45v-8q0 -41 -39 -52q-23 6 -78 47l2 -90l-23 -6 q-20 6 -32 19l-8 114l-113 68v-131l100 -68l4 -10l-10 -27l-20 -16l-74 49l2 -96l-10 -8h-47l-9 8l2 96l-75 -49q-29 10 -27 33v20l102 68v131l-112 -68l-8 -114l-7 -9l-34 -10l-17 6l4 90l-80 -47l-12 2q-25 31 -24 58zM43 190l18 -26q57 33 93 51q12 -16 4 -102l20 8 q10 111 27 131q4 4 117 67l14 -8v-153q-35 -27 -105 -72l11 -23l80 54l14 -8l-2 -105h28l-2 105l15 8l80 -54l8 23q-68 45 -103 72v153l15 8q109 -59 114 -65q18 -25 27 -133l21 -8l-5 92l15 10l86 -51l20 26l-90 52l2 16l82 41l-14 18l-105 -53q-51 25 -145 78v16 q94 53 145 78l105 -51l14 18l-82 39l-2 17l90 51l-18 27q-31 -18 -94 -52l-9 11l5 92l-21 -6q-8 -111 -27 -133q-6 -8 -114 -68l-15 8v154q35 29 103 73l-8 21l-80 -51l-15 8l2 102h-28l2 -102l-14 -8l-80 51l-11 -21q70 -45 105 -73v-154l-14 -8q-111 59 -117 68 q-16 20 -27 133l-20 6l4 -92l-8 -11q-37 18 -93 52l-18 -27l90 -51l-2 -17l-82 -39l12 -18l107 51q51 -25 143 -78v-16q-92 -53 -143 -78l-107 53l-14 -18l84 -41l2 -16z" />
<glyph unicode="&#xb1;" d="M35 272l18 50l164 -35l107 63l-107 66l-164 -37l-18 51l96 33l-92 51l14 25l92 -54l-22 99l55 10l47 -160l111 -61v125l-111 123l31 45l80 -72l-4 108h35l-5 -108l80 72l31 -45l-111 -123v-125l111 61l49 160l53 -10l-22 -99l92 54l14 -25l-90 -51l95 -33l-19 -51 l-162 37l-108 -66l108 -63l162 35l19 -50l-95 -34l90 -52l-14 -22l-92 51l22 -98l-53 -11l-49 160l-111 62v-125l111 -123l-31 -45l-80 71l5 -106h-35l4 106l-80 -71l-31 45l111 123v125l-111 -62l-47 -160l-55 11l22 98l-92 -51l-14 22l92 52z" />
<glyph unicode="&#xb4;" d="M35 272l18 50l164 -35l107 63l-107 66l-164 -37l-18 51l96 33l-92 51l14 25l92 -54l-22 99l55 10l47 -160l111 -61v125l-111 123l31 45l80 -72l-4 108h35l-5 -108l80 72l31 -45l-111 -123v-125l111 61l49 160l53 -10l-22 -99l92 54l14 -25l-90 -51l95 -33l-19 -51 l-162 37l-108 -66l108 -63l162 35l19 -50l-95 -34l90 -52l-14 -22l-92 51l22 -98l-53 -11l-49 160l-111 62v-125l111 -123l-31 -45l-80 71l5 -106h-35l4 106l-80 -71l-31 45l111 123v125l-111 -62l-47 -160l-55 11l22 98l-92 -51l-14 22l92 52z" />
<glyph unicode="&#xb6;" d="M35 272l18 50l164 -35l107 63l-107 66l-164 -37l-18 51l96 33l-92 51l14 25l92 -54l-22 99l55 10l47 -160l111 -61v125l-111 123l31 45l80 -72l-4 108h35l-5 -108l80 72l31 -45l-111 -123v-125l111 61l49 160l53 -10l-22 -99l92 54l14 -25l-90 -51l95 -33l-19 -51 l-162 37l-108 -66l108 -63l162 35l19 -50l-95 -34l90 -52l-14 -22l-92 51l22 -98l-53 -11l-49 160l-111 62v-125l111 -123l-31 -45l-80 71l5 -106h-35l4 106l-80 -71l-31 45l111 123v125l-111 -62l-47 -160l-55 11l22 98l-92 -51l-14 22l92 52z" />
<glyph unicode="&#xba;" horiz-adv-x="641" d="M35 199q14 12 139 73l-131 78l131 76q-59 29 -139 76l24 41l138 -80v153l135 -75l-10 153l4 6q31 0 49 -4l-4 -155l137 75v-153q43 31 129 88l29 -45q-31 -23 -136 -80l134 -76l-134 -78q51 -20 140 -73l-29 -43l-133 80v-156l-137 78l8 -154l-6 -4l-51 4v33q0 -4 10 121 l-135 -78v156q-43 -31 -134 -80zM84 350l113 -65l114 65l-114 64zM217 115l115 65v137l-115 -67v-135zM217 451l115 -68v133l-115 68v-133zM373 180l116 -65v135l-116 67v-137zM373 383l116 72v129l-116 -68v-133zM389 350l119 -65l115 65l-115 64z" />
<glyph unicode="&#xbf;" d="M35 272l18 50l164 -35l107 63l-107 66l-164 -37l-18 51l96 33l-92 51l14 25l92 -54l-22 99l55 10l47 -160l111 -61v125l-111 123l31 45l80 -72l-4 108h35l-5 -108l80 72l31 -45l-111 -123v-125l111 61l49 160l53 -10l-22 -99l92 54l14 -25l-90 -51l95 -33l-19 -51 l-162 37l-108 -66l108 -63l162 35l19 -50l-95 -34l90 -52l-14 -22l-92 51l22 -98l-53 -11l-49 160l-111 62v-125l111 -123l-31 -45l-80 71l5 -106h-35l4 106l-80 -71l-31 45l111 123v125l-111 -62l-47 -160l-55 11l22 98l-92 -51l-14 22l92 52z" />
<glyph unicode="&#xc4;" d="M35 272l18 50l164 -35l107 63l-107 66l-164 -37l-18 51l96 33l-92 51l14 25l92 -54l-22 99l55 10l47 -160l111 -61v125l-111 123l31 45l80 -72l-4 108h35l-5 -108l80 72l31 -45l-111 -123v-125l111 61l49 160l53 -10l-22 -99l92 54l14 -25l-90 -51l95 -33l-19 -51 l-162 37l-108 -66l108 -63l162 35l19 -50l-95 -34l90 -52l-14 -22l-92 51l22 -98l-53 -11l-49 160l-111 62v-125l111 -123l-31 -45l-80 71l5 -106h-35l4 106l-80 -71l-31 45l111 123v125l-111 -62l-47 -160l-55 11l22 98l-92 -51l-14 22l92 52z" />
<glyph unicode="&#xc5;" horiz-adv-x="700" d="M37 193l100 57l-96 47l18 27l113 -56l143 82l-143 82l-113 -53l-18 27l96 45l-100 57l22 37l99 -58l-4 109l30 -10l11 -121l135 -82v162l-105 69l15 31l90 -59l-2 116h39l-2 -116l92 59l12 -31l-104 -69v-162l139 82l8 121l31 10l-4 -109l96 58l24 -37l-100 -57l96 -45 l-20 -27l-111 53l-145 -82l145 -82l111 56l20 -27l-96 -47l100 -57l-24 -37l-96 57l4 -107l-31 11l-8 119l-139 81v-161l104 -68l-12 -31l-92 60l2 -117h-39l2 117l-90 -60l-15 31l105 68v161l-135 -81l-11 -119l-30 -11l4 107l-99 -57z" />
<glyph unicode="&#xc6;" d="M35 272l18 50l164 -35l107 63l-107 66l-164 -37l-18 51l96 33l-92 51l14 25l92 -54l-22 99l55 10l47 -160l111 -61v125l-111 123l31 45l80 -72l-4 108h35l-5 -108l80 72l31 -45l-111 -123v-125l111 61l49 160l53 -10l-22 -99l92 54l14 -25l-90 -51l95 -33l-19 -51 l-162 37l-108 -66l108 -63l162 35l19 -50l-95 -34l90 -52l-14 -22l-92 51l22 -98l-53 -11l-49 160l-111 62v-125l111 -123l-31 -45l-80 71l5 -106h-35l4 106l-80 -71l-31 45l111 123v125l-111 -62l-47 -160l-55 11l22 98l-92 -51l-14 22l92 52z" />
<glyph unicode="&#xc7;" horiz-adv-x="641" d="M35 199q14 12 139 73l-131 78l131 76q-59 29 -139 76l24 41l138 -80v153l135 -75l-10 153l4 6q31 0 49 -4l-4 -155l137 75v-153q43 31 129 88l29 -45q-31 -23 -136 -80l134 -76l-134 -78q51 -20 140 -73l-29 -43l-133 80v-156l-137 78l8 -154l-6 -4l-51 4v33q0 -4 10 121 l-135 -78v156q-43 -31 -134 -80zM84 350l113 -65l114 65l-114 64zM217 115l115 65v137l-115 -67v-135zM217 451l115 -68v133l-115 68v-133zM373 180l116 -65v135l-116 67v-137zM373 383l116 72v129l-116 -68v-133zM389 350l119 -65l115 65l-115 64z" />
<glyph unicode="&#xc9;" horiz-adv-x="712" d="M31 270l20 58l164 -37l100 59l-100 62l-164 -37l-20 57l90 33l-88 49l20 29l86 -49l-22 94l63 10l49 -160l103 -57v115l-111 125l35 51l76 -70l-4 105h43l-4 -105l75 70l37 -51l-112 -125v-115l104 57l47 160l64 -10l-23 -94l86 49l21 -29l-86 -49l90 -33l-23 -57 l-164 37l-100 -62l100 -59l164 37l23 -58l-90 -32l86 -50l-21 -30l-86 49l23 -94l-64 -11l-47 162l-104 55v-114l112 -125l-37 -51l-75 69l4 -102h-43l4 102l-76 -69l-35 51l111 125v114l-103 -55l-49 -162l-63 11l22 94l-86 -49l-20 30l88 50z" />
<glyph unicode="&#xd1;" horiz-adv-x="700" d="M37 193l100 57l-96 47l18 27l113 -56l143 82l-143 82l-113 -53l-18 27l96 45l-100 57l22 37l99 -58l-4 109l30 -10l11 -121l135 -82v162l-105 69l15 31l90 -59l-2 116h39l-2 -116l92 59l12 -31l-104 -69v-162l139 82l8 121l31 10l-4 -109l96 58l24 -37l-100 -57l96 -45 l-20 -27l-111 53l-145 -82l145 -82l111 56l20 -27l-96 -47l100 -57l-24 -37l-96 57l4 -107l-31 11l-8 119l-139 81v-161l104 -68l-12 -31l-92 60l2 -117h-39l2 117l-90 -60l-15 31l105 68v161l-135 -81l-11 -119l-30 -11l4 107l-99 -57z" />
<glyph unicode="&#xd6;" horiz-adv-x="641" d="M35 199q14 12 139 73l-131 78l131 76q-59 29 -139 76l24 41l138 -80v153l135 -75l-10 153l4 6q31 0 49 -4l-4 -155l137 75v-153q43 31 129 88l29 -45q-31 -23 -136 -80l134 -76l-134 -78q51 -20 140 -73l-29 -43l-133 80v-156l-137 78l8 -154l-6 -4l-51 4v33q0 -4 10 121 l-135 -78v156q-43 -31 -134 -80zM84 350l113 -65l114 65l-114 64zM217 115l115 65v137l-115 -67v-135zM217 451l115 -68v133l-115 68v-133zM373 180l116 -65v135l-116 67v-137zM373 383l116 72v129l-116 -68v-133zM389 350l119 -65l115 65l-115 64z" />
<glyph unicode="&#xd8;" horiz-adv-x="700" d="M37 193l100 57l-96 47l18 27l113 -56l143 82l-143 82l-113 -53l-18 27l96 45l-100 57l22 37l99 -58l-4 109l30 -10l11 -121l135 -82v162l-105 69l15 31l90 -59l-2 116h39l-2 -116l92 59l12 -31l-104 -69v-162l139 82l8 121l31 10l-4 -109l96 58l24 -37l-100 -57l96 -45 l-20 -27l-111 53l-145 -82l145 -82l111 56l20 -27l-96 -47l100 -57l-24 -37l-96 57l4 -107l-31 11l-8 119l-139 81v-161l104 -68l-12 -31l-92 60l2 -117h-39l2 117l-90 -60l-15 31l105 68v161l-135 -81l-11 -119l-30 -11l4 107l-99 -57z" />
<glyph unicode="&#xdc;" d="M35 272l18 50l164 -35l107 63l-107 66l-164 -37l-18 51l96 33l-92 51l14 25l92 -54l-22 99l55 10l47 -160l111 -61v125l-111 123l31 45l80 -72l-4 108h35l-5 -108l80 72l31 -45l-111 -123v-125l111 61l49 160l53 -10l-22 -99l92 54l14 -25l-90 -51l95 -33l-19 -51 l-162 37l-108 -66l108 -63l162 35l19 -50l-95 -34l90 -52l-14 -22l-92 51l22 -98l-53 -11l-49 160l-111 62v-125l111 -123l-31 -45l-80 71l5 -106h-35l4 106l-80 -71l-31 45l111 123v125l-111 -62l-47 -160l-55 11l22 98l-92 -51l-14 22l92 52z" />
<glyph unicode="&#xdf;" horiz-adv-x="704" d="M31 195l96 55l-92 45l24 33l113 -54l135 76l-135 76l-113 -53l-24 35l92 43l-96 57l28 41l95 -55l-4 108l38 -14l11 -121l127 -78v154l-105 69l17 39l88 -59l-2 115h47l-2 -115l90 59l16 -39l-106 -69v-154l131 78l8 121l39 14l-4 -108l94 55l29 -41l-97 -57l93 -43 l-25 -35l-113 53l-137 -76l137 -76l113 54l25 -33l-93 -45l97 -55l-29 -43l-94 55l4 -107l-39 13l-8 120l-131 78v-153l106 -70l-16 -37l-90 58l2 -113h-47l2 113l-88 -58l-17 37l105 70v153l-127 -78l-11 -120l-38 -13l4 107l-95 -55z" />
<glyph unicode="&#xe0;" horiz-adv-x="700" d="M37 193l100 57l-96 47l18 27l113 -56l143 82l-143 82l-113 -53l-18 27l96 45l-100 57l22 37l99 -58l-4 109l30 -10l11 -121l135 -82v162l-105 69l15 31l90 -59l-2 116h39l-2 -116l92 59l12 -31l-104 -69v-162l139 82l8 121l31 10l-4 -109l96 58l24 -37l-100 -57l96 -45 l-20 -27l-111 53l-145 -82l145 -82l111 56l20 -27l-96 -47l100 -57l-24 -37l-96 57l4 -107l-31 11l-8 119l-139 81v-161l104 -68l-12 -31l-92 60l2 -117h-39l2 117l-90 -60l-15 31l105 68v161l-135 -81l-11 -119l-30 -11l4 107l-99 -57z" />
<glyph unicode="&#xe1;" horiz-adv-x="647" d="M31 186l2 15l84 47l-80 41l-2 10q0 23 28 33l109 -53l127 71l-127 72l-109 -51q-29 8 -28 32l2 11l80 39l-84 49l-2 14q0 25 35 37l81 -49l-4 92l21 8l29 -18l10 -117l119 -70v140l-101 69l-2 17q0 20 25 28l78 -51l-3 100l9 9h39l10 -9l-2 -100l76 51q27 -8 24 -28v-17 l-100 -69v-140l119 70l10 117l4 8l29 10l14 -8l-2 -92l82 49q35 -12 35 -43l-2 -8l-84 -49l79 -39v-11q0 -25 -28 -32l-107 51l-127 -72l127 -71l107 53q29 -10 28 -33v-10l-79 -41l84 -47l2 -15q0 -27 -35 -39l-82 52l2 -93l-19 -8l-28 17l-10 116l-119 72v-141l100 -66 v-18q2 -23 -24 -29l-76 51l2 -100l-10 -8h-39l-9 8l3 100l-78 -51q-25 6 -25 29l2 18l101 66v141l-119 -72l-10 -116l-7 -9l-26 -8l-17 8l4 93l-81 -52q-35 12 -35 39zM49 190l14 -22l89 53l14 -8l-4 -94l14 4q8 115 27 135q4 4 123 68l14 -9v-161q-35 -27 -102 -72l6 -14 l82 55l14 -8l-2 -109h20l-2 109l15 8l82 -55l6 14q-68 45 -103 72v161l15 9q121 -66 121 -68q20 -20 28 -135l12 -4l-4 94l15 8l90 -53l14 22q-35 17 -96 56l4 12l86 41l-8 12l-105 -51q-53 27 -153 82v16q98 55 153 82l105 -51l8 12l-86 41l-2 17l94 53l-14 20l-90 -53 l-15 8l4 95l-12 -4q-8 -115 -26 -136q-2 -2 -123 -67l-15 8v162q35 29 103 71l-6 15l-82 -53l-15 8l2 106h-20l2 -106l-14 -8l-82 53l-6 -15q68 -43 102 -71v-162l-14 -8q-119 63 -123 67q-18 23 -27 136l-14 4l4 -95l-14 -8l-89 53l-14 -20l92 -53v-17l-86 -41l8 -12 l105 51q53 -27 151 -82v-16q-98 -55 -151 -82l-105 51l-10 -12l88 -41v-16z" />
<glyph unicode="&#xe2;" horiz-adv-x="647" d="M31 199q31 27 135 73l-131 78l131 76q-47 23 -135 76q16 31 28 45l134 -76v154l135 -78l-11 149l11 9h39l12 -9l-4 -147l137 76v-154q41 31 125 84q23 -23 33 -49q-47 -33 -131 -80l133 -76l-133 -78q47 -20 135 -73q-13 -22 -33 -47l-129 77v-155l-137 76l8 -144 l-12 -10q-29 0 -54 8v35q0 18 11 111l-135 -76v155q-41 -31 -130 -77q-14 14 -32 47zM92 350l105 -59l106 59l-106 58zM221 123l107 59v127l-107 -61v-125zM221 453l107 -62v123l-107 61v-122zM377 182l108 -59v125l-108 61v-127zM377 391l108 66v118l-108 -61v-123z M397 350l111 -59l106 59l-106 58z" />
<glyph unicode="&#xe3;" horiz-adv-x="700" d="M37 193l100 57l-96 47l18 27l113 -56l143 82l-143 82l-113 -53l-18 27l96 45l-100 57l22 37l99 -58l-4 109l30 -10l11 -121l135 -82v162l-105 69l15 31l90 -59l-2 116h39l-2 -116l92 59l12 -31l-104 -69v-162l139 82l8 121l31 10l-4 -109l96 58l24 -37l-100 -57l96 -45 l-20 -27l-111 53l-145 -82l145 -82l111 56l20 -27l-96 -47l100 -57l-24 -37l-96 57l4 -107l-31 11l-8 119l-139 81v-161l104 -68l-12 -31l-92 60l2 -117h-39l2 117l-90 -60l-15 31l105 68v161l-135 -81l-11 -119l-30 -11l4 107l-99 -57z" />
<glyph unicode="&#xe4;" d="M35 272l18 50l164 -35l107 63l-107 66l-164 -37l-18 51l96 33l-92 51l14 25l92 -54l-22 99l55 10l47 -160l111 -61v125l-111 123l31 45l80 -72l-4 108h35l-5 -108l80 72l31 -45l-111 -123v-125l111 61l49 160l53 -10l-22 -99l92 54l14 -25l-90 -51l95 -33l-19 -51 l-162 37l-108 -66l108 -63l162 35l19 -50l-95 -34l90 -52l-14 -22l-92 51l22 -98l-53 -11l-49 160l-111 62v-125l111 -123l-31 -45l-80 71l5 -106h-35l4 106l-80 -71l-31 45l111 123v125l-111 -62l-47 -160l-55 11l22 98l-92 -51l-14 22l92 52z" />
<glyph unicode="&#xe5;" horiz-adv-x="714" d="M27 199q20 18 129 75l-119 68l2 16l117 68q-35 16 -70 33q-47 20 -59 43q12 29 32 51q27 -10 129 -74v137l13 9l121 -68l-11 137l15 15q66 2 65 -47q0 -18 -5 -54.5t-5 -50.5l123 68l12 -9v-135q41 31 121 78q16 -12 39 -53q-31 -27 -127 -80l119 -68l2 -16l-119 -70 q35 -16 67 -32q47 -23 62 -41q-6 -11 -39 -54q-37 16 -125 74v-139l-12 -8l-123 69l8 -133l-14 -16q-27 0 -53 8l-15 31q0 20 6 58t9 52l-121 -69l-13 8v139q-53 -33 -125 -74q-20 27 -36 54zM45 197q8 -6 23 -31l125 78l12 -8v-140l123 70l12 -10q-10 -119 -10 -117l2 -31 l16 4l23 -4q-6 29 -9 150l13 8l125 -70v140l12 8q45 -25 127 -78q6 16 20 31l-133 67v17l119 69l-119 68v16l129 74q-8 18 -20 31q-31 -27 -123 -82l-12 6v139l-125 -70l-13 9l3 141l-35 10l10 -151l-12 -9l-123 70v-139l-12 -8l-132 77q-10 -8 -14 -28l131 -70v-16 l-117 -68l119 -69l-2 -17zM74 350q0 8 57 40t70 32q10 0 65.5 -33t55.5 -39q0 -8 -58.5 -41t-70.5 -33q-10 0 -64.5 35t-54.5 39zM100 350l97 -55l96 55l-96 53zM207 115v135l4 8q66 37 121 68q8 0 8 -9v-137q0 -4 -125 -74q-8 -4 -8 9zM207 451v133q0 12 8 8 q125 -70 125 -76v-133q0 -8 -8 -8q-72 39 -121 67zM225 131l97 55v115l-97 -57v-113zM225 455l97 -56v113l-97 55v-112zM362 180v137q0 8 9 9q68 -37 123 -68l4 -8v-135q0 -8 -9 -9q-96 51 -120 66zM362 383v133q0 6 127 76q8 4 9 -8v-129l-4 -9q-8 -3 -123 -71q-8 0 -9 8z M379 350q0 8 59.5 40t73.5 32q10 0 65.5 -33t55.5 -39t-58.5 -40t-70.5 -34q-10 0 -67.5 35t-57.5 39zM381 186l98 -55v113l-98 57v-115zM381 399l98 62v106l-98 -55v-113zM408 350l100 -55l96 55l-96 53z" />
<glyph unicode="&#xe6;" horiz-adv-x="700" d="M37 193l100 57l-96 47l18 27l113 -56l143 82l-143 82l-113 -53l-18 27l96 45l-100 57l22 37l99 -58l-4 109l30 -10l11 -121l135 -82v162l-105 69l15 31l90 -59l-2 116h39l-2 -116l92 59l12 -31l-104 -69v-162l139 82l8 121l31 10l-4 -109l96 58l24 -37l-100 -57l96 -45 l-20 -27l-111 53l-145 -82l145 -82l111 56l20 -27l-96 -47l100 -57l-24 -37l-96 57l4 -107l-31 11l-8 119l-139 81v-161l104 -68l-12 -31l-92 60l2 -117h-39l2 117l-90 -60l-15 31l105 68v161l-135 -81l-11 -119l-30 -11l4 107l-99 -57z" />
<glyph unicode="&#xe7;" d="M35 272l18 50l164 -35l107 63l-107 66l-164 -37l-18 51l96 33l-92 51l14 25l92 -54l-22 99l55 10l47 -160l111 -61v125l-111 123l31 45l80 -72l-4 108h35l-5 -108l80 72l31 -45l-111 -123v-125l111 61l49 160l53 -10l-22 -99l92 54l14 -25l-90 -51l95 -33l-19 -51 l-162 37l-108 -66l108 -63l162 35l19 -50l-95 -34l90 -52l-14 -22l-92 51l22 -98l-53 -11l-49 160l-111 62v-125l111 -123l-31 -45l-80 71l5 -106h-35l4 106l-80 -71l-31 45l111 123v125l-111 -62l-47 -160l-55 11l22 98l-92 -51l-14 22l92 52z" />
<glyph unicode="&#xe8;" horiz-adv-x="641" d="M35 199q14 12 139 73l-131 78l131 76q-59 29 -139 76l24 41l138 -80v153l135 -75l-10 153l4 6q31 0 49 -4l-4 -155l137 75v-153q43 31 129 88l29 -45q-31 -23 -136 -80l134 -76l-134 -78q51 -20 140 -73l-29 -43l-133 80v-156l-137 78l8 -154l-6 -4l-51 4v33q0 -4 10 121 l-135 -78v156q-43 -31 -134 -80zM84 350l113 -65l114 65l-114 64zM217 115l115 65v137l-115 -67v-135zM217 451l115 -68v133l-115 68v-133zM373 180l116 -65v135l-116 67v-137zM373 383l116 72v129l-116 -68v-133zM389 350l119 -65l115 65l-115 64z" />
<glyph unicode="&#xe9;" horiz-adv-x="704" d="M31 195l96 55l-92 45l24 33l113 -54l135 76l-135 76l-113 -53l-24 35l92 43l-96 57l28 41l95 -55l-4 108l38 -14l11 -121l127 -78v154l-105 69l17 39l88 -59l-2 115h47l-2 -115l90 59l16 -39l-106 -69v-154l131 78l8 121l39 14l-4 -108l94 55l29 -41l-97 -57l93 -43 l-25 -35l-113 53l-137 -76l137 -76l113 54l25 -33l-93 -45l97 -55l-29 -43l-94 55l4 -107l-39 13l-8 120l-131 78v-153l106 -70l-16 -37l-90 58l2 -113h-47l2 113l-88 -58l-17 37l105 70v153l-127 -78l-11 -120l-38 -13l4 107l-95 -55z" />
<glyph unicode="&#xea;" d="M35 272l18 50l164 -35l107 63l-107 66l-164 -37l-18 51l96 33l-92 51l14 25l92 -54l-22 99l55 10l47 -160l111 -61v125l-111 123l31 45l80 -72l-4 108h35l-5 -108l80 72l31 -45l-111 -123v-125l111 61l49 160l53 -10l-22 -99l92 54l14 -25l-90 -51l95 -33l-19 -51 l-162 37l-108 -66l108 -63l162 35l19 -50l-95 -34l90 -52l-14 -22l-92 51l22 -98l-53 -11l-49 160l-111 62v-125l111 -123l-31 -45l-80 71l5 -106h-35l4 106l-80 -71l-31 45l111 123v125l-111 -62l-47 -160l-55 11l22 98l-92 -51l-14 22l92 52z" />
<glyph unicode="&#xeb;" d="M35 272l18 50l164 -35l107 63l-107 66l-164 -37l-18 51l96 33l-92 51l14 25l92 -54l-22 99l55 10l47 -160l111 -61v125l-111 123l31 45l80 -72l-4 108h35l-5 -108l80 72l31 -45l-111 -123v-125l111 61l49 160l53 -10l-22 -99l92 54l14 -25l-90 -51l95 -33l-19 -51 l-162 37l-108 -66l108 -63l162 35l19 -50l-95 -34l90 -52l-14 -22l-92 51l22 -98l-53 -11l-49 160l-111 62v-125l111 -123l-31 -45l-80 71l5 -106h-35l4 106l-80 -71l-31 45l111 123v125l-111 -62l-47 -160l-55 11l22 98l-92 -51l-14 22l92 52z" />
<glyph unicode="&#xec;" horiz-adv-x="657" d="M16 201q27 18 131 73l-118 68l2 16l116 68q-49 20 -67 31q-45 25 -57 45q14 31 36 55q20 -8 125 -70v138l13 8l118 -70q-8 121 -8 129l19 21q27 0 53 -8q16 -23 14 -70q-4 -35 -8 -72l123 70l12 -8v-138q37 29 117 76q16 -12 43 -57q-16 -29 -123 -80l119 -68l2 -16 l-119 -68l66 -32q41 -20 59 -43q-20 -44 -43 -58q-43 25 -121 72v-139l-12 -8l-123 67q8 -119 8 -125q0 -20 -20 -20q-27 0 -56 8l-14 31q0 20 6 55t6 51l-118 -67l-13 8v139q-49 -33 -121 -72q-18 16 -40 58q12 18 38 26q-14 -14 -45 -24zM41 199q14 -20 22 -39l125 76 l15 -7v-139l119 68l14 -8q-10 -111 -10 -119l2 -27q16 4 37 2l10 4l-8 140l14 8l123 -68v139l12 9l125 -78l25 39l-131 65v17l118 69l-118 68v16l127 72l-25 39l-121 -82l-12 8v137l-123 -67l-14 8l2 147l-19 -2l-24 2l10 -147l-14 -10l-119 69v-137l-15 -8l-129 76 q-12 -16 -18 -37q6 -4 129 -68v-16l-117 -68l117 -69v-17q-43 -23 -129 -65zM82 350q0 10 53 38t66 28q10 0 60 -30t50 -36q0 -8 -53 -37.5t-65 -29.5q-10 0 -60.5 31.5t-50.5 35.5zM109 350l88 -49l88 49l-88 49zM211 123v125q2 2 4 6l113 65q8 4 8 -10v-127l-4 -8 q-31 -16 -113 -61q-8 0 -8 10zM211 453v122q0 10 8 11q8 0 90 -51q27 -18 27 -21v-123q0 -10 -8 -10q-6 0 -61.5 33t-55.5 39zM229 137l88 51v107l-88 -53v-105zM229 457l88 -51v102l-88 53v-104zM367 182v127q0 10 8 10q66 -37 114 -65q2 -2 5 -6v-125q0 -14 -9 -10 q-118 63 -118 69zM367 391v123l6 8q53 31 112 64q8 0 9 -11v-118q0 -4 -119 -76q-8 0 -8 10zM385 188l90 -51v105l-90 53v-107zM385 406l90 57v98l-90 -53v-102zM389 350q0 8 55.5 37t67.5 29q10 0 60.5 -30t50.5 -36q0 -8 -53.5 -37.5t-65.5 -29.5q-10 0 -62.5 31.5 t-52.5 35.5zM416 350l92 -49l88 49l-88 49z" />
<glyph unicode="&#xed;" horiz-adv-x="700" d="M37 193l100 57l-96 47l18 27l113 -56l143 82l-143 82l-113 -53l-18 27l96 45l-100 57l22 37l99 -58l-4 109l30 -10l11 -121l135 -82v162l-105 69l15 31l90 -59l-2 116h39l-2 -116l92 59l12 -31l-104 -69v-162l139 82l8 121l31 10l-4 -109l96 58l24 -37l-100 -57l96 -45 l-20 -27l-111 53l-145 -82l145 -82l111 56l20 -27l-96 -47l100 -57l-24 -37l-96 57l4 -107l-31 11l-8 119l-139 81v-161l104 -68l-12 -31l-92 60l2 -117h-39l2 117l-90 -60l-15 31l105 68v161l-135 -81l-11 -119l-30 -11l4 107l-99 -57z" />
<glyph unicode="&#xee;" d="M35 272l18 50l164 -35l107 63l-107 66l-164 -37l-18 51l96 33l-92 51l14 25l92 -54l-22 99l55 10l47 -160l111 -61v125l-111 123l31 45l80 -72l-4 108h35l-5 -108l80 72l31 -45l-111 -123v-125l111 61l49 160l53 -10l-22 -99l92 54l14 -25l-90 -51l95 -33l-19 -51 l-162 37l-108 -66l108 -63l162 35l19 -50l-95 -34l90 -52l-14 -22l-92 51l22 -98l-53 -11l-49 160l-111 62v-125l111 -123l-31 -45l-80 71l5 -106h-35l4 106l-80 -71l-31 45l111 123v125l-111 -62l-47 -160l-55 11l22 98l-92 -51l-14 22l92 52z" />
<glyph unicode="&#xef;" horiz-adv-x="700" d="M37 193l100 57l-96 47l18 27l113 -56l143 82l-143 82l-113 -53l-18 27l96 45l-100 57l22 37l99 -58l-4 109l30 -10l11 -121l135 -82v162l-105 69l15 31l90 -59l-2 116h39l-2 -116l92 59l12 -31l-104 -69v-162l139 82l8 121l31 10l-4 -109l96 58l24 -37l-100 -57l96 -45 l-20 -27l-111 53l-145 -82l145 -82l111 56l20 -27l-96 -47l100 -57l-24 -37l-96 57l4 -107l-31 11l-8 119l-139 81v-161l104 -68l-12 -31l-92 60l2 -117h-39l2 117l-90 -60l-15 31l105 68v161l-135 -81l-11 -119l-30 -11l4 107l-99 -57z" />
<glyph unicode="&#xf1;" horiz-adv-x="641" d="M35 199q14 12 139 73l-131 78l131 76q-59 29 -139 76l24 41l138 -80v153l135 -75l-10 153l4 6q31 0 49 -4l-4 -155l137 75v-153q43 31 129 88l29 -45q-31 -23 -136 -80l134 -76l-134 -78q51 -20 140 -73l-29 -43l-133 80v-156l-137 78l8 -154l-6 -4l-51 4v33q0 -4 10 121 l-135 -78v156q-43 -31 -134 -80zM84 350l113 -65l114 65l-114 64zM217 115l115 65v137l-115 -67v-135zM217 451l115 -68v133l-115 68v-133zM373 180l116 -65v135l-116 67v-137zM373 383l116 72v129l-116 -68v-133zM389 350l119 -65l115 65l-115 64z" />
<glyph unicode="&#xf2;" horiz-adv-x="700" d="M37 193l100 57l-96 47l18 27l113 -56l143 82l-143 82l-113 -53l-18 27l96 45l-100 57l22 37l99 -58l-4 109l30 -10l11 -121l135 -82v162l-105 69l15 31l90 -59l-2 116h39l-2 -116l92 59l12 -31l-104 -69v-162l139 82l8 121l31 10l-4 -109l96 58l24 -37l-100 -57l96 -45 l-20 -27l-111 53l-145 -82l145 -82l111 56l20 -27l-96 -47l100 -57l-24 -37l-96 57l4 -107l-31 11l-8 119l-139 81v-161l104 -68l-12 -31l-92 60l2 -117h-39l2 117l-90 -60l-15 31l105 68v161l-135 -81l-11 -119l-30 -11l4 107l-99 -57z" />
<glyph unicode="&#xf3;" d="M35 272l18 50l164 -35l107 63l-107 66l-164 -37l-18 51l96 33l-92 51l14 25l92 -54l-22 99l55 10l47 -160l111 -61v125l-111 123l31 45l80 -72l-4 108h35l-5 -108l80 72l31 -45l-111 -123v-125l111 61l49 160l53 -10l-22 -99l92 54l14 -25l-90 -51l95 -33l-19 -51 l-162 37l-108 -66l108 -63l162 35l19 -50l-95 -34l90 -52l-14 -22l-92 51l22 -98l-53 -11l-49 160l-111 62v-125l111 -123l-31 -45l-80 71l5 -106h-35l4 106l-80 -71l-31 45l111 123v125l-111 -62l-47 -160l-55 11l22 98l-92 -51l-14 22l92 52z" />
<glyph unicode="&#xf4;" horiz-adv-x="647" d="M31 199q31 27 135 73l-131 78l131 76q-47 23 -135 76q16 31 28 45l134 -76v154l135 -78l-11 149l11 9h39l12 -9l-4 -147l137 76v-154q41 31 125 84q23 -23 33 -49q-47 -33 -131 -80l133 -76l-133 -78q47 -20 135 -73q-13 -22 -33 -47l-129 77v-155l-137 76l8 -144 l-12 -10q-29 0 -54 8v35q0 18 11 111l-135 -76v155q-41 -31 -130 -77q-14 14 -32 47zM92 350l105 -59l106 59l-106 58zM221 123l107 59v127l-107 -61v-125zM221 453l107 -62v123l-107 61v-122zM377 182l108 -59v125l-108 61v-127zM377 391l108 66v118l-108 -61v-123z M397 350l111 -59l106 59l-106 58z" />
<glyph unicode="&#xf5;" horiz-adv-x="700" d="M37 193l100 57l-96 47l18 27l113 -56l143 82l-143 82l-113 -53l-18 27l96 45l-100 57l22 37l99 -58l-4 109l30 -10l11 -121l135 -82v162l-105 69l15 31l90 -59l-2 116h39l-2 -116l92 59l12 -31l-104 -69v-162l139 82l8 121l31 10l-4 -109l96 58l24 -37l-100 -57l96 -45 l-20 -27l-111 53l-145 -82l145 -82l111 56l20 -27l-96 -47l100 -57l-24 -37l-96 57l4 -107l-31 11l-8 119l-139 81v-161l104 -68l-12 -31l-92 60l2 -117h-39l2 117l-90 -60l-15 31l105 68v161l-135 -81l-11 -119l-30 -11l4 107l-99 -57z" />
<glyph unicode="&#xf6;" d="M35 272l18 50l164 -35l107 63l-107 66l-164 -37l-18 51l96 33l-92 51l14 25l92 -54l-22 99l55 10l47 -160l111 -61v125l-111 123l31 45l80 -72l-4 108h35l-5 -108l80 72l31 -45l-111 -123v-125l111 61l49 160l53 -10l-22 -99l92 54l14 -25l-90 -51l95 -33l-19 -51 l-162 37l-108 -66l108 -63l162 35l19 -50l-95 -34l90 -52l-14 -22l-92 51l22 -98l-53 -11l-49 160l-111 62v-125l111 -123l-31 -45l-80 71l5 -106h-35l4 106l-80 -71l-31 45l111 123v125l-111 -62l-47 -160l-55 11l22 98l-92 -51l-14 22l92 52z" />
<glyph unicode="&#xf8;" horiz-adv-x="641" d="M35 199q14 12 139 73l-131 78l131 76q-59 29 -139 76l24 41l138 -80v153l135 -75l-10 153l4 6q31 0 49 -4l-4 -155l137 75v-153q43 31 129 88l29 -45q-31 -23 -136 -80l134 -76l-134 -78q51 -20 140 -73l-29 -43l-133 80v-156l-137 78l8 -154l-6 -4l-51 4v33q0 -4 10 121 l-135 -78v156q-43 -31 -134 -80zM84 350l113 -65l114 65l-114 64zM217 115l115 65v137l-115 -67v-135zM217 451l115 -68v133l-115 68v-133zM373 180l116 -65v135l-116 67v-137zM373 383l116 72v129l-116 -68v-133zM389 350l119 -65l115 65l-115 64z" />
<glyph unicode="&#xf9;" horiz-adv-x="657" d="M27 272q2 16 18 54l10 6l160 -35l92 53l-92 56l-160 -35q-20 8 -28 59q12 14 82 35l-74 41l-2 14q0 20 26 27l72 -43l-18 80q12 12 63 18l10 -6l47 -156l95 -51v107l-109 118v13q0 29 43 47l64 -60l-4 88l10 9h35l10 -9l-4 -88q18 25 65 60q31 -12 43 -60l-108 -118v-107 l92 51l47 156l12 6q43 -2 62 -20l-19 -78l72 43q27 -6 27 -29l-2 -12l-72 -41l45 -13.5t37 -23.5q-10 -49 -31 -57l-158 35l-92 -56l92 -53l158 35l10 -6q8 -18 21 -54q-12 -13 -82 -36l72 -41l2 -11q0 -23 -27 -28l-72 43q18 -57 19 -72q0 -29 -43 -29l-31 6l-47 156 l-92 51v-106l108 -119v-12q-23 -37 -45 -45l-63 57l4 -86l-10 -8h-35l-10 8l4 86q-18 -23 -66 -57q-31 10 -41 57l109 119v106l-95 -51l-47 -156l-10 -6q-16 2 -34.5 4t-28.5 15l18 82l-72 -43q-27 6 -26 26l2 13l74 41q-31 6 -82 36zM47 276l86 -30l2 -17l-82 -45l4 -8 l82 47l15 -10l-21 -90l39 -6q35 131 39 139q14 20 121 80l14 -8v-125q-37 -43 -108 -125l20 -29l72 66l16 -9l-6 -98h18l-4 98l15 9l71 -66l21 29q-72 82 -107 125v125l13 8q106 -59 120 -80q6 -8 41 -139l37 6l-20 90l14 10l82 -47l6 8l-82 45v17l86 30l-12 35l-154 -35 q-43 23 -116 66v16q74 45 116 66l154 -35l12 35l-86 31v16l82 47l-6 8l-82 -49l-14 10l20 91l-37 6q-35 -127 -41 -140q-16 -23 -120 -79l-13 8v125q35 43 109 125l-23 28l-71 -65l-15 8l4 98h-18l6 -98l-16 -8l-72 65l-20 -28q72 -80 108 -125v-125l-14 -8q-102 57 -119 79 q-8 12 -41 140l-39 -6l21 -91l-15 -10l-82 49l-4 -8l82 -47l-2 -16l-86 -31l12 -33l156 33q41 -20 115 -66v-16q-74 -43 -115 -66l-156 35z" />
<glyph unicode="&#xfa;" horiz-adv-x="641" d="M35 199q14 12 139 73l-131 78l131 76q-59 29 -139 76l24 41l138 -80v153l135 -75l-10 153l4 6q31 0 49 -4l-4 -155l137 75v-153q43 31 129 88l29 -45q-31 -23 -136 -80l134 -76l-134 -78q51 -20 140 -73l-29 -43l-133 80v-156l-137 78l8 -154l-6 -4l-51 4v33q0 -4 10 121 l-135 -78v156q-43 -31 -134 -80zM84 350l113 -65l114 65l-114 64zM217 115l115 65v137l-115 -67v-135zM217 451l115 -68v133l-115 68v-133zM373 180l116 -65v135l-116 67v-137zM373 383l116 72v129l-116 -68v-133zM389 350l119 -65l115 65l-115 64z" />
<glyph unicode="&#xfb;" horiz-adv-x="700" d="M37 193l100 57l-96 47l18 27l113 -56l143 82l-143 82l-113 -53l-18 27l96 45l-100 57l22 37l99 -58l-4 109l30 -10l11 -121l135 -82v162l-105 69l15 31l90 -59l-2 116h39l-2 -116l92 59l12 -31l-104 -69v-162l139 82l8 121l31 10l-4 -109l96 58l24 -37l-100 -57l96 -45 l-20 -27l-111 53l-145 -82l145 -82l111 56l20 -27l-96 -47l100 -57l-24 -37l-96 57l4 -107l-31 11l-8 119l-139 81v-161l104 -68l-12 -31l-92 60l2 -117h-39l2 117l-90 -60l-15 31l105 68v161l-135 -81l-11 -119l-30 -11l4 107l-99 -57z" />
<glyph unicode="&#xfc;" horiz-adv-x="641" d="M35 199q14 12 139 73l-131 78l131 76q-59 29 -139 76l24 41l138 -80v153l135 -75l-10 153l4 6q31 0 49 -4l-4 -155l137 75v-153q43 31 129 88l29 -45q-31 -23 -136 -80l134 -76l-134 -78q51 -20 140 -73l-29 -43l-133 80v-156l-137 78l8 -154l-6 -4l-51 4v33q0 -4 10 121 l-135 -78v156q-43 -31 -134 -80zM84 350l113 -65l114 65l-114 64zM217 115l115 65v137l-115 -67v-135zM217 451l115 -68v133l-115 68v-133zM373 180l116 -65v135l-116 67v-137zM373 383l116 72v129l-116 -68v-133zM389 350l119 -65l115 65l-115 64z" />
<glyph unicode="&#x2000;" horiz-adv-x="919" />
<glyph unicode="&#x2001;" horiz-adv-x="1839" />
<glyph unicode="&#x2002;" horiz-adv-x="919" />
<glyph unicode="&#x2003;" horiz-adv-x="1839" />
<glyph unicode="&#x2004;" horiz-adv-x="613" />
<glyph unicode="&#x2005;" horiz-adv-x="459" />
<glyph unicode="&#x2006;" horiz-adv-x="306" />
<glyph unicode="&#x2007;" horiz-adv-x="306" />
<glyph unicode="&#x2008;" horiz-adv-x="229" />
<glyph unicode="&#x2009;" horiz-adv-x="367" />
<glyph unicode="&#x200a;" horiz-adv-x="102" />
<glyph unicode="&#x2010;" horiz-adv-x="663" d="M84 530v205h453v-205h-453z" />
<glyph unicode="&#x2011;" horiz-adv-x="663" d="M84 530v205h453v-205h-453z" />
<glyph unicode="&#x2012;" horiz-adv-x="663" d="M84 530v205h453v-205h-453z" />
<glyph unicode="&#x2013;" horiz-adv-x="1234" d="M84 530v205h1024v-205h-1024z" />
<glyph unicode="&#x2014;" horiz-adv-x="2258" d="M84 530v205h2048v-205h-2048z" />
<glyph unicode="&#x2022;" horiz-adv-x="641" d="M35 199q14 12 139 73l-131 78l131 76q-59 29 -139 76l24 41l138 -80v153l135 -75l-10 153l4 6q31 0 49 -4l-4 -155l137 75v-153q43 31 129 88l29 -45q-31 -23 -136 -80l134 -76l-134 -78q51 -20 140 -73l-29 -43l-133 80v-156l-137 78l8 -154l-6 -4l-51 4v33q0 -4 10 121 l-135 -78v156q-43 -31 -134 -80zM84 350l113 -65l114 65l-114 64zM217 115l115 65v137l-115 -67v-135zM217 451l115 -68v133l-115 68v-133zM373 180l116 -65v135l-116 67v-137zM373 383l116 72v129l-116 -68v-133zM389 350l119 -65l115 65l-115 64z" />
<glyph unicode="&#x202f;" horiz-adv-x="367" />
<glyph unicode="&#x205f;" horiz-adv-x="459" />
<glyph unicode="&#x2122;" horiz-adv-x="700" d="M37 193l100 57l-96 47l18 27l113 -56l143 82l-143 82l-113 -53l-18 27l96 45l-100 57l22 37l99 -58l-4 109l30 -10l11 -121l135 -82v162l-105 69l15 31l90 -59l-2 116h39l-2 -116l92 59l12 -31l-104 -69v-162l139 82l8 121l31 10l-4 -109l96 58l24 -37l-100 -57l96 -45 l-20 -27l-111 53l-145 -82l145 -82l111 56l20 -27l-96 -47l100 -57l-24 -37l-96 57l4 -107l-31 11l-8 119l-139 81v-161l104 -68l-12 -31l-92 60l2 -117h-39l2 117l-90 -60l-15 31l105 68v161l-135 -81l-11 -119l-30 -11l4 107l-99 -57z" />
<glyph unicode="&#x25fc;" horiz-adv-x="1187" d="M0 0v1188h1188v-1188h-1188z" />
</font>
</defs>
</svg>
